<svg width="424" height="910" viewBox="0 0 424 910" fill="none" xmlns="http://www.w3.org/2000/svg">
<path d="M0 59.4126C19.8771 56.461 41.0711 37.3846 59.556 25.7384C71.9662 17.9194 84.9439 8.17736 98.0722 3.98174C121.603 -3.53832 156.476 1.94133 172.475 34.6073C194.452 79.4803 156.8 111.814 136.588 129.256C126.733 137.761 104.697 152.042 101.126 171.66C95.0038 205.299 112.673 238.593 132.516 239.009C146.465 239.301 157.348 238.019 170.269 228.893C184.697 218.701 197.334 212.919 213.112 209.076C239.913 202.548 266.833 205.226 290.908 226.675C299.133 234.004 315.703 245.682 320.601 260.35C330.584 290.244 314.518 302.942 300.325 317.721C290.637 327.809 279.01 335.923 268.002 341.279C255.281 347.468 241.31 355.591 228.298 358.74C190.722 367.833 154.004 404.563 155.762 473.482C156.679 509.455 163.925 554.421 187.067 567.021C199.18 573.617 212.564 570.546 225.159 570.763C269.721 571.529 310.183 591.03 338.417 649.613C344.609 662.461 356.785 679.969 357.336 697.977C357.758 711.775 358.771 726.003 362.85 738.303C367.452 752.181 373.765 767.42 382.108 775.857C389.801 783.636 397.43 792.899 403.487 803.85C410.582 816.675 415.066 825.335 417.655 841.404C419.254 851.328 418.93 861.308 420.031 871.198C421.436 883.823 423 897.356 423 910" stroke="#4B4B4B" stroke-linecap="round" stroke-dasharray="10 10"/>
</svg>
