<svg width="735" height="479" viewBox="0 0 735 479" fill="none" xmlns="http://www.w3.org/2000/svg">
<path d="M1 0C36.7061 2.5065 57.3552 76.3236 67.852 112.798C77.126 145.023 73.0561 185.2 73.0561 218.767C73.0561 284.314 67.7081 359.638 132.703 359.638C150.106 359.638 160.816 348.444 174.735 334.853C206.426 303.91 232.751 268.521 271.811 252.657C319.161 233.426 379.298 254.601 399.31 314.367C407.684 339.376 424.414 377.971 444.145 391.505C457.532 400.687 468.217 410.806 483.776 409.714C498.012 408.715 520.802 362.929 530.212 351.039C545.809 331.331 561.206 327.771 582.653 327.771C604.726 327.771 613.614 341.847 630.69 357.615C651.522 376.85 658.749 407.738 676.526 430.2C706.009 467.455 732.138 478 772 478" stroke="#4B4B4B" stroke-linecap="round" stroke-dasharray="10 10"/>
</svg>
