<svg width="206" height="207" viewBox="0 0 206 207" fill="none" xmlns="http://www.w3.org/2000/svg">
<path fill-rule="evenodd" clip-rule="evenodd" d="M179.991 100.33L180.425 101.327L180.919 102.337L181.472 103.364L182.083 104.409L182.75 105.476L183.47 106.567L184.24 107.684L185.055 108.829L185.913 110.004L186.809 111.21L187.736 112.45L188.692 113.723L189.669 115.031L190.662 116.374L191.666 117.753L192.675 119.167L193.683 120.615L194.683 122.098L195.672 123.614L196.642 125.161L197.588 126.739L198.506 128.346L199.391 129.979L200.237 131.638L201.041 133.319L201.797 135.02L202.503 136.738L203.154 138.471L203.747 140.216L204.277 141.97L204.742 143.729L205.138 145.49L205.463 147.25L205.713 149.004L205.887 150.75L205.983 152.483L206 154.201L205.936 155.899L205.791 157.575L205.564 159.224L205.257 160.845L204.868 162.433L204.399 163.986L203.852 165.501L203.228 166.976L202.528 168.409L201.755 169.797L200.912 171.14L200 172.434L199.024 173.681L197.986 174.877L196.889 176.023L195.737 177.119L194.533 178.163L193.282 179.158L191.987 180.102L190.652 180.997L189.281 181.844L187.877 182.644L186.445 183.399L184.988 184.11L183.51 184.78L182.015 185.41L180.506 186.003L178.987 186.562L177.461 187.09L175.931 187.588L174.4 188.061L172.871 188.511L171.346 188.942L169.828 189.355L168.318 189.756L166.818 190.145L165.33 190.527L163.854 190.905L162.393 191.281L160.947 191.657L159.515 192.037L158.099 192.422L156.698 192.814L155.312 193.215L153.94 193.626L152.582 194.049L151.237 194.484L149.903 194.932L148.58 195.393L147.267 195.866L145.961 196.351L144.661 196.847L143.366 197.353L142.074 197.867L140.783 198.388L139.493 198.913L138.201 199.441L136.906 199.968L135.608 200.493L134.304 201.013L132.994 201.524L131.678 202.025L130.353 202.511L129.021 202.982L127.68 203.433L126.33 203.864L124.972 204.272L123.606 204.657L122.232 205.016L120.85 205.348L119.461 205.652L118.065 205.928L116.663 206.174L115.256 206.389L113.844 206.573L112.428 206.725L111.009 206.844L109.587 206.931L108.163 206.983L106.739 207L105.315 206.982L103.891 206.928L102.47 206.837L101.051 206.709L99.6365 206.544L98.2269 206.339L96.8233 206.096L95.427 205.814L94.0389 205.492L92.6603 205.131L91.2923 204.729L89.936 204.288L88.5926 203.807L87.2633 203.286L85.949 202.727L84.651 202.129L83.3701 201.493L82.1074 200.82L80.8638 200.112L79.64 199.368L78.437 198.591L77.2553 197.781L76.0956 196.941L74.9584 196.071L73.8441 195.174L72.7529 194.25L71.6852 193.303L70.641 192.333L69.6204 191.343L68.6233 190.334L67.6495 189.308L66.699 188.268L65.7713 187.213L64.8662 186.147L63.9832 185.072L63.122 183.987L62.2821 182.895L61.4631 181.797L60.6646 180.695L59.8861 179.588L59.1274 178.478L58.388 177.366L57.6678 176.252L56.9664 175.136L56.284 174.019L55.6203 172.9L54.9756 171.78L54.3498 170.659L53.7432 169.536L53.1561 168.412L52.5887 167.286L52.0412 166.158L51.514 165.028L51.0071 163.896L50.5205 162.762L50.0542 161.628L49.6081 160.492L49.1814 159.357L48.7734 158.222L48.3829 157.091L48.0084 155.963L47.6478 154.841L47.299 153.727L46.9593 152.622L46.6256 151.529L46.2946 150.451L45.9627 149.389L45.6262 148.345L45.2814 147.321L44.9251 146.317L44.5537 145.336L44.1642 144.377L43.7535 143.441L43.3187 142.528L42.8571 141.638L42.3661 140.77L41.8435 139.924L41.2872 139.098L40.6951 138.292L40.0658 137.504L39.3978 136.733L38.6901 135.977L37.9418 135.234L37.1524 134.501L36.3218 133.778L35.4502 133.062L34.5379 132.349L33.586 131.639L32.5955 130.928L31.568 130.213L30.5054 129.493L29.4098 128.765L28.284 128.026L27.1307 127.273L25.9531 126.505L24.7548 125.719L23.5394 124.914L22.311 124.086L21.0739 123.234L19.8324 122.357L18.5911 121.453L17.3548 120.521L16.1283 119.56L14.9164 118.569L13.7241 117.548L12.5562 116.496L11.4176 115.413L10.313 114.299L9.24686 113.156L8.22368 111.983L7.24759 110.782L6.32248 109.553L5.45194 108.299L4.63921 107.021L3.88719 105.72L3.19833 104.398L2.57468 103.058L2.01784 101.701L1.5289 100.33L1.10851 98.9469L0.756815 97.554L0.473462 96.1535L0.257622 94.7475L0.107998 93.3383L0.0228438 91.9277L0 90.5176L0.0369326 89.1097L0.130783 87.7057L0.27843 86.3069L0.476558 84.9144L0.721739 83.5292L1.01053 82.1522L1.33955 80.784L1.70551 79.4252L2.10508 78.076L2.53472 76.7366L2.9906 75.4067L3.46869 74.0861L3.96486 72.7739L4.47502 71.4694L4.9952 70.1716L5.5217 68.8791L6.05115 67.5907L6.58066 66.305L7.10778 65.0207L7.63029 63.7364L8.14613 62.4505L8.65336 61.1614L9.15017 59.8674L9.635 58.5668L10.1066 57.258L10.5639 55.9391L11.0064 54.6087L11.4338 53.2652L11.8462 51.9072L12.2443 50.5337L12.629 49.1437L13.0015 47.7363L13.3637 46.3113L13.7175 44.8684L14.0654 43.4077L14.41 41.9297L14.7543 40.4351L15.1016 38.9251L15.4551 37.4011L15.8184 35.8649L16.1951 34.3185L16.5889 32.7643L17.0036 31.2051L17.4428 29.6438L17.9101 28.0836L18.4091 26.528L18.9431 24.9807L19.5153 23.4455L20.1288 21.9265L20.7862 20.4277L21.4901 18.9534L22.2426 17.5077L23.0455 16.0948L23.9004 14.7191L24.8085 13.3847L25.7705 12.0955L26.7871 10.8556L27.8582 9.66866L28.9836 8.53827L30.1629 7.46779L31.395 6.46034L32.6787 5.51878L34.0125 4.64569L35.3945 3.84338L36.8227 3.11383L38.2947 2.45874L39.808 1.87948L41.3599 1.37713L42.9473 0.952437L44.5674 0.605873L46.217 0.337601L47.8928 0.147501L49.5915 0.0351849L51.3099 0L53.0446 0.0410474L54.7922 0.157191L56.5494 0.347066L58.313 0.609088L60.0798 0.941458L61.8465 1.34215L63.6101 1.80894L65.3674 2.33932L67.1157 2.93055L68.8519 3.5796L70.5733 4.28309L72.2772 5.03729L73.9608 5.83819L75.6219 6.68155L77.258 7.56257L78.8669 8.47594L80.4465 9.41583L81.9949 10.376L83.5105 11.3497L84.9919 12.3301L86.438 13.3098L87.848 14.2814L89.2216 15.2373L90.5587 16.1696L91.8598 17.0708L93.1256 17.9338L94.3574 18.7516L95.5568 19.5177L96.7257 20.2262L97.8665 20.8716L98.9817 21.4489L100.074 21.9538L101.148 22.3825L102.205 22.7319L103.249 22.9995L104.284 23.1835L105.315 23.2829L106.343 23.2974L107.374 23.2272L108.411 23.0735L109.457 22.8381L110.517 22.5233L111.592 22.1323L112.688 21.669L113.806 21.1376L114.948 20.5431L116.119 19.8911L117.318 19.1874L118.548 18.4385L119.811 17.6511L121.106 16.8323L122.434 15.9894L123.796 15.1299L125.191 14.2615L126.618 13.3919L128.076 12.5287L129.563 11.6796L131.078 10.852L132.618 10.0533L134.18 9.29044L135.762 8.57014L137.36 7.89877L138.971 7.28226L140.591 6.72612L142.217 6.23534L143.845 5.8144L145.47 5.46724L147.09 5.19723L148.699 5.00716L150.294 4.89922L151.871 4.87504L153.427 4.93563L154.957 5.08144L156.46 5.31237L157.93 5.62777L159.367 6.02646L160.766 6.50679L162.126 7.06667L163.445 7.70357L164.721 8.41459L165.952 9.19648L167.139 10.0457L168.279 10.9585L169.374 11.9308L170.422 12.9585L171.424 14.0372L172.381 15.1624L173.294 16.3298L174.164 17.5346L174.993 18.7725L175.782 20.0387L176.535 21.3289L177.252 22.639L177.936 23.9652L178.589 25.3043L179.213 26.6537L179.809 28.0109L180.378 29.3743L180.922 30.7423L181.44 32.114L181.933 33.4887L182.401 34.8664L182.843 36.2468L183.258 37.6299L183.647 39.0159L184.007 40.4045L184.339 41.7958L184.642 43.1896L184.915 44.5858L185.157 45.9841L185.368 47.3842L185.547 48.7856L185.694 50.1881L185.809 51.5909L185.891 52.9935L185.94 54.3952L185.956 55.7952L185.939 57.1926L185.89 58.5866L185.809 59.9762L185.696 61.3604L185.553 62.738L185.381 64.108L185.18 65.4694L184.953 66.8208L184.701 68.1613L184.426 69.4897L184.13 70.8049L183.815 72.1059L183.484 73.3917L183.14 74.6614L182.786 75.914L182.424 77.149L182.058 78.3657L181.692 79.5636L181.329 80.7423L180.973 81.9017L180.628 83.0416L180.297 84.1623L179.985 85.2641L179.695 86.3474L179.432 87.4131L179.199 88.4619L179.001 89.495L178.84 90.5137L178.721 91.5196L178.648 92.5143L178.622 93.4998L178.647 94.478L178.726 95.4512L178.861 96.4219L179.054 97.3925L179.306 98.3655L179.618 99.3438L179.991 100.33Z" fill="url(#paint0_linear_602_1830)"/>
<defs>
<linearGradient id="paint0_linear_602_1830" x1="-130.292" y1="205.901" x2="44.0259" y2="316.207" gradientUnits="userSpaceOnUse">
<stop stop-color="#5200E8"/>
<stop offset="1" stop-color="#75C4FC"/>
</linearGradient>
</defs>
</svg>
