<svg width="278" height="289" viewBox="0 0 278 289" fill="none" xmlns="http://www.w3.org/2000/svg">
<path fill-rule="evenodd" clip-rule="evenodd" d="M277.712 157.046V157.046L277.595 158.795L277.457 160.543L277.3 162.287L277.123 164.029L276.927 165.767L276.71 167.502L276.474 169.233L276.218 170.96L275.942 172.683L275.647 174.402L275.332 176.116L274.998 177.824L274.644 179.528L274.27 181.226L273.878 182.919L273.466 184.605L273.035 186.286L272.584 187.96L272.115 189.627L271.627 191.287L271.119 192.94L270.593 194.586L270.048 196.224L269.484 197.854L268.902 199.476L268.301 201.09L267.681 202.695L267.043 204.291L266.387 205.878L265.713 207.455L265.02 209.023L264.309 210.581L263.581 212.129L262.835 213.666L262.071 215.193L261.289 216.709L260.49 218.214L259.673 219.708L258.84 221.189L257.989 222.659L257.121 224.117L256.236 225.563L255.335 226.996L254.417 228.416L253.483 229.823L252.532 231.217L251.565 232.598L250.583 233.964L249.585 235.317L248.571 236.656L247.542 237.98L246.498 239.29L245.439 240.585L244.366 241.865L243.278 243.13L242.176 244.379L241.06 245.614L239.93 246.832L238.787 248.035L237.63 249.222L236.461 250.393L235.279 251.548L234.085 252.686L232.879 253.808L231.661 254.913L230.431 256.002L229.19 257.074L227.939 258.13L226.676 259.168L225.403 260.189L224.12 261.194L222.827 262.181L221.525 263.15L220.213 264.103L218.892 265.038L217.563 265.956L216.225 266.856L214.878 267.739L213.524 268.604L212.162 269.451L210.793 270.281L209.416 271.093L208.033 271.887L206.643 272.663L205.246 273.422L203.844 274.162L202.435 274.885L201.021 275.59L199.602 276.277L198.177 276.946L196.748 277.598L195.314 278.231L193.875 278.846L192.433 279.443L190.986 280.022L189.536 280.583L188.082 281.127L186.625 281.652L185.166 282.159L183.703 282.648L182.238 283.119L180.771 283.572L179.301 284.007L177.83 284.423L176.357 284.822L174.882 285.203L173.407 285.565L171.93 285.909L170.453 286.236L168.975 286.544L167.497 286.834L166.018 287.106L164.54 287.359L163.062 287.595L161.585 287.812L160.108 288.011L158.632 288.192L157.158 288.355L155.684 288.499L154.213 288.625L152.743 288.733L151.275 288.823L149.809 288.895L148.346 288.948L146.886 288.983L145.429 289L143.974 288.999L142.523 288.979L141.076 288.942L139.632 288.886L138.193 288.812L136.758 288.72L135.327 288.611L133.901 288.483L132.48 288.337L131.065 288.174L129.655 287.992L128.25 287.794L126.852 287.577L125.459 287.343L124.074 287.092L122.694 286.824L121.322 286.538L119.957 286.236L118.599 285.917L117.248 285.581L115.906 285.229L114.571 284.86L113.245 284.476L111.927 284.076L110.617 283.66L109.317 283.229L108.025 282.783L106.743 282.322L105.47 281.847L104.207 281.357L102.953 280.854L101.709 280.337L100.475 279.808L99.2514 279.265L98.0377 278.71L96.8344 278.143L95.6415 277.564L94.4591 276.974L93.2872 276.373L92.1259 275.762L90.9753 275.14L89.8353 274.509L88.706 273.869L87.5875 273.219L86.4796 272.561L85.3824 271.895L84.2959 271.221L83.22 270.54L82.1547 269.851L81.0999 269.156L80.0556 268.454L79.0217 267.747L77.9981 267.033L76.9847 266.314L75.9814 265.59L74.9882 264.862L74.0049 264.128L73.0313 263.391L72.0674 262.65L71.113 261.904L70.168 261.156L69.2323 260.404L68.3057 259.65L67.388 258.892L66.4792 258.132L65.579 257.37L64.6873 256.606L63.804 255.839L62.9289 255.071L62.0618 254.301L61.2027 253.529L60.3512 252.756L59.5074 251.981L58.6709 251.206L57.8417 250.429L57.0196 249.651L56.2044 248.872L55.3959 248.092L54.5939 247.312L53.7984 246.531L53.0091 245.749L52.2259 244.966L51.4486 244.183L50.677 243.4L49.911 242.616L49.1504 241.831L48.3951 241.046L47.6449 240.261L46.8997 239.475L46.1593 238.689L45.4236 237.902L44.6925 237.114L43.9659 236.326L43.2437 235.537L42.5256 234.747L41.8118 233.957L41.102 233.165L40.3962 232.373L39.6943 231.579L38.9963 230.785L38.3021 229.989L37.6117 229.191L36.925 228.392L36.242 227.591L35.5627 226.788L34.8871 225.984L34.2153 225.177L33.5471 224.368L32.8827 223.556L32.2221 222.742L31.5653 221.926L30.9124 221.106L30.2634 220.284L29.6184 219.458L28.9776 218.629L28.3408 217.797L27.7084 216.961L27.0803 216.122L26.4566 215.279L25.8375 214.431L25.2231 213.58L24.6135 212.725L24.0088 211.865L23.4091 211.001L22.8145 210.133L22.2253 209.26L21.6414 208.382L21.063 207.499L20.4903 206.612L19.9233 205.72L19.3623 204.823L18.8072 203.921L18.2582 203.014L17.7154 202.102L17.1789 201.185L16.6487 200.262L16.1251 199.335L15.608 198.402L15.0976 197.465L14.5939 196.522L14.097 195.574L13.6071 194.621L13.1241 193.663L12.6483 192.699L12.1796 191.731L11.7183 190.757L11.2643 189.778L10.8179 188.794L10.379 187.805L9.94775 186.811L9.52432 185.811L9.10876 184.807L8.70118 183.798L8.30167 182.783L7.91033 181.764L7.52726 180.739L7.15257 179.71L6.78634 178.676L6.42869 177.637L6.0797 176.593L5.73948 175.545L5.40814 174.491L5.08576 173.433L4.77246 172.371L4.46833 171.304L4.17347 170.232L3.88799 169.156L3.61198 168.076L3.34555 166.991L3.08881 165.902L2.84185 164.809L2.60477 163.711L2.37766 162.61L2.16061 161.505L1.95368 160.396L1.75694 159.283L1.57045 158.166L1.39427 157.046L1.22843 155.922L1.07297 154.794L0.927942 153.664L0.793361 152.529L0.669257 151.392L0.555651 150.252L0.452563 149.108L0.360007 147.962L0.277996 146.812L0.206543 145.66L0.145656 144.505L0.095344 143.348L0.055615 142.187L0.0264763 141.025L0.00793538 139.859L0 138.692L0.00267863 137.522L0.0159807 136.35L0.0399167 135.176L0.0744989 133.999L0.119741 132.821L0.175658 131.641L0.242268 130.458L0.319591 129.274L0.407647 128.088L0.506463 126.901L0.616063 125.712L0.736477 124.521L0.867736 123.329L1.00987 122.136L1.16293 120.941L1.32693 119.745L1.50192 118.548L1.68795 117.349L1.88506 116.15L2.09329 114.95L2.31269 113.749L2.54331 112.547L2.78519 111.344L3.03839 110.141L3.30295 108.938L3.57894 107.734L3.86639 106.529L4.16535 105.325L4.47589 104.12L4.79805 102.915L5.13187 101.71L5.4774 100.505L5.8347 99.3011L6.2038 98.097L6.58474 96.8933L6.97757 95.6902L7.38233 94.4877L7.79904 93.286L8.22775 92.085L8.66848 90.885L9.12126 89.686L9.58611 88.4881L10.0631 87.2914L10.5521 86.096L11.0533 84.9019L11.5666 83.7094L12.0922 82.5184L12.6299 81.3291L13.1798 80.1415L13.742 78.9558L14.3165 77.7721L14.9034 76.5905L15.5026 75.4111L16.1142 74.234L16.7382 73.0594L17.3748 71.8873L18.0238 70.7179L18.6855 69.5514L19.3598 68.3878L20.0467 67.2274L20.7464 66.0702L21.4588 64.9164L22.1841 63.7662L22.9222 62.6197L23.6732 61.4771L24.4371 60.3386L25.2141 59.2044L26.0042 58.0745L26.8073 56.9493L27.6235 55.8288L28.453 54.7134L29.2957 53.6032L30.1516 52.4983L31.0209 51.3991L31.9035 50.3057L32.7995 49.2184L33.7089 48.1373L34.6317 47.0628L35.568 45.995L36.5178 44.9342L37.4811 43.8806L38.4578 42.8344L39.448 41.7959L40.4517 40.7653L41.4688 39.7428L42.4993 38.7286L43.5432 37.7228L44.6004 36.7258L45.6709 35.7377L46.7547 34.7588L47.8516 33.7891L48.9616 32.829L50.0847 31.8785L51.2208 30.938L52.3698 30.0075L53.5317 29.0873L54.7063 28.1776L55.8936 27.2785L57.0935 26.3903L58.3059 25.5131L59.5308 24.6471L60.768 23.7925L62.0174 22.9496L63.279 22.1184L64.5526 21.2992L65.8382 20.4922L67.1356 19.6975L68.4447 18.9154L69.7655 18.1461L71.0977 17.3897L72.4414 16.6465L73.7963 15.9167L75.1624 15.2004L76.5395 14.498L77.9275 13.8094L79.3262 13.1351L80.7356 12.4752L82.1554 11.8299L83.5856 11.1995L85.0259 10.5841L86.4763 9.98391L87.9366 9.39922L89.4066 8.83021L90.8861 8.27711L92.375 7.74012L93.8731 7.21945L95.3802 6.71532L96.8961 6.22793L98.4206 5.75749L99.9536 5.30421L101.495 4.86828L103.044 4.4499L104.601 4.04926L106.166 3.66655L107.738 3.30195L109.317 2.95564L110.903 2.62779L112.496 2.31855L114.095 2.02809L115.701 1.75654L117.312 1.50405L118.929 1.27075L120.552 1.05676L122.18 0.86218L123.813 0.687118L125.45 0.531664L127.092 0.395911L128.739 0.279948L130.389 0.183862L132.043 0.107741L133.7 0.051669L135.361 0.0157284L137.024 0L138.69 0.00456225L140.359 0.0294913L142.029 0.0748608L143.702 0.140742L145.376 0.227204L147.051 0.334312L148.727 0.462129L150.404 0.610715L152.082 0.780127L153.759 0.970419L155.437 1.18164L157.113 1.41384L158.79 1.66706L160.465 1.94135L162.139 2.23673L163.811 2.55324L165.481 2.89091L167.149 3.24976L168.815 3.62982L170.477 4.0311L172.137 4.45362L173.793 4.89739L175.445 5.3624L177.094 5.84866L178.738 6.35616L180.377 6.88491L182.011 7.43487L183.64 8.00604L185.263 8.59838L186.88 9.21185L188.491 9.8464L190.096 10.502L191.693 11.1785L193.283 11.8759L194.866 12.5942L196.441 13.3331L198.008 14.0927L199.567 14.8728L201.117 15.6733L202.657 16.4941L204.189 17.3351L205.711 18.1962L207.223 19.0772L208.726 19.9779L210.217 20.8984L211.699 21.8383L213.169 22.7976L214.628 23.7762L216.075 24.7737L217.511 25.7902L218.935 26.8254L220.346 27.8791L221.745 28.9513L223.132 30.0416L224.505 31.15L225.865 32.2762L227.211 33.4201L228.544 34.5815L229.862 35.7602L231.167 36.9559L232.457 38.1685L233.732 39.3978L234.992 40.6436L236.237 41.9057L237.466 43.1838L238.68 44.4777L239.878 45.7873L241.06 47.1122L242.225 48.4523L243.374 49.8074L244.507 51.1772L245.622 52.5614L246.721 53.9598L247.802 55.3722L248.865 56.7984L249.911 58.238L250.939 59.6908L251.949 61.1566L252.941 62.635L253.915 64.1259L254.87 65.6289L255.807 67.1438L256.725 68.6703L257.624 70.2081L258.504 71.757L259.365 73.3165L260.207 74.8865L261.03 76.4667L261.834 78.0567L262.618 79.6563L263.383 81.2651L264.128 82.8829L264.854 84.5093L265.56 86.1441L266.247 87.7869L266.915 89.4375L267.563 91.0956L268.192 92.7608L268.801 94.4329L269.39 96.1116L269.96 97.7966L270.511 99.4877L271.042 101.185L271.553 102.887L272.046 104.595L272.518 106.307L272.971 108.024L273.405 109.746L273.819 111.472L274.214 113.202L274.589 114.936L274.945 116.673L275.281 118.414L275.598 120.157L275.895 121.903L276.173 123.652L276.431 125.403L276.669 127.156L276.889 128.911L277.088 130.668L277.268 132.425L277.428 134.184L277.569 135.944L277.69 137.705L277.791 139.466L277.872 141.227L277.934 142.988L277.976 144.749L277.998 146.509L278 148.268L277.982 150.027L277.945 151.784L277.887 153.54L277.809 155.294L277.712 157.046" fill="#0703C9"/>
<path fill-rule="evenodd" clip-rule="evenodd" d="M255.735 155.547V155.547L255.627 157.158L255.5 158.766L255.356 160.372L255.193 161.975L255.012 163.575L254.812 165.171L254.595 166.765L254.359 168.354L254.105 169.94L253.833 171.522L253.543 173.099L253.235 174.672L252.909 176.24L252.565 177.803L252.204 179.361L251.825 180.914L251.428 182.46L251.013 184.001L250.581 185.535L250.131 187.064L249.664 188.585L249.179 190.1L248.677 191.608L248.158 193.108L247.622 194.601L247.068 196.086L246.498 197.563L245.91 199.033L245.306 200.493L244.685 201.945L244.047 203.388L243.393 204.822L242.722 206.247L242.035 207.662L241.331 209.067L240.611 210.463L239.876 211.848L239.124 213.222L238.356 214.586L237.572 215.939L236.773 217.281L235.958 218.611L235.128 219.93L234.283 221.238L233.423 222.533L232.547 223.816L231.657 225.086L230.753 226.344L229.834 227.589L228.9 228.821L227.953 230.04L226.991 231.246L226.016 232.438L225.028 233.616L224.026 234.78L223.011 235.93L221.983 237.066L220.943 238.188L219.89 239.295L218.825 240.388L217.748 241.465L216.66 242.528L215.56 243.576L214.449 244.609L213.328 245.626L212.196 246.628L211.053 247.615L209.9 248.586L208.738 249.542L207.566 250.482L206.384 251.407L205.193 252.315L203.994 253.208L202.786 254.084L201.57 254.945L200.345 255.79L199.113 256.618L197.873 257.431L196.626 258.227L195.372 259.007L194.111 259.77L192.844 260.518L191.57 261.249L190.29 261.963L189.004 262.662L187.712 263.343L186.415 264.009L185.113 264.657L183.806 265.29L182.494 265.906L181.178 266.505L179.857 267.088L178.532 267.654L177.204 268.204L175.872 268.737L174.537 269.253L173.198 269.753L171.856 270.237L170.512 270.703L169.165 271.153L167.816 271.587L166.465 272.004L165.112 272.404L163.757 272.788L162.401 273.155L161.043 273.505L159.684 273.839L158.324 274.155L156.964 274.456L155.603 274.739L154.242 275.006L152.88 275.256L151.519 275.49L150.158 275.706L148.797 275.906L147.438 276.09L146.079 276.256L144.721 276.406L143.364 276.539L142.009 276.655L140.655 276.754L139.304 276.837L137.954 276.903L136.607 276.952L135.262 276.984L133.92 277L132.581 276.999L131.244 276.981L129.912 276.946L128.582 276.895L127.257 276.827L125.935 276.743L124.618 276.642L123.305 276.524L121.996 276.39L120.693 276.239L119.394 276.073L118.101 275.89L116.813 275.69L115.531 275.475L114.255 275.244L112.985 274.997L111.721 274.734L110.464 274.456L109.213 274.162L107.97 273.853L106.733 273.529L105.504 273.19L104.283 272.836L103.069 272.467L101.864 272.085L100.666 271.688L99.4767 271.278L98.2958 270.853L97.1236 270.416L95.9602 269.966L94.8056 269.502L93.6602 269.027L92.5239 268.539L91.3969 268.04L90.2793 267.529L89.1713 267.007L88.0727 266.474L86.9839 265.931L85.9047 265.378L84.8354 264.815L83.7758 264.243L82.726 263.663L81.6861 263.073L80.6561 262.475L79.6359 261.87L78.6255 261.257L77.625 260.636L76.6342 260.009L75.6532 259.375L74.6819 258.735L73.7203 258.09L72.7682 257.438L71.8256 256.781L70.8924 256.12L69.9685 255.453L69.0539 254.783L68.1483 254.108L67.2518 253.429L66.3642 252.747L65.4854 252.061L64.6152 251.372L63.7535 250.68L62.9002 249.986L62.0552 249.288L61.2182 248.589L60.3893 247.887L59.5682 247.184L58.7548 246.478L57.9489 245.771L57.1505 245.062L56.3593 244.352L55.5752 243.64L54.7981 242.928L54.0279 242.214L53.2643 241.498L52.5072 240.782L51.7565 240.066L51.012 239.348L50.2736 238.63L49.541 237.911L48.8142 237.191L48.0929 236.471L47.3771 235.75L46.6666 235.029L45.9612 234.307L45.2608 233.585L44.5653 232.863L43.8744 232.14L43.1882 231.416L42.5064 230.693L41.829 229.968L41.1557 229.243L40.4866 228.518L39.8215 227.792L39.1603 227.065L38.5029 226.337L37.8493 225.609L37.1994 224.88L36.553 224.149L35.9103 223.418L35.271 222.685L34.6352 221.951L34.0029 221.215L33.3739 220.478L32.7484 219.739L32.1263 218.999L31.5076 218.256L30.8923 217.512L30.2805 216.765L29.6721 216.015L29.0673 215.264L28.4661 214.51L27.8685 213.753L27.2745 212.993L26.6844 212.23L26.098 211.464L25.5156 210.694L24.9372 209.922L24.3629 209.146L23.7928 208.366L23.2271 207.582L22.6657 206.795L22.1088 206.004L21.5566 205.209L21.0091 204.409L20.4664 203.606L19.9288 202.798L19.3962 201.986L18.8688 201.169L18.3467 200.348L17.83 199.522L17.3188 198.692L16.8133 197.857L16.3134 197.018L15.8194 196.173L15.3312 195.324L14.849 194.471L14.3728 193.613L13.9028 192.75L13.439 191.882L12.9814 191.009L12.5302 190.132L12.0855 189.25L11.6473 188.363L11.2158 187.472L10.7909 186.576L10.3729 185.675L9.96176 184.769L9.5576 183.858L9.16052 182.943L8.77059 182.024L8.38792 181.099L8.01259 180.17L7.6447 179.236L7.28433 178.298L6.93158 177.355L6.58654 176.408L6.24929 175.456L5.91994 174.5L5.59857 173.539L5.28528 172.574L4.98016 171.604L4.68329 170.631L4.39478 169.653L4.11472 168.671L3.84319 167.684L3.5803 166.694L3.32614 165.699L3.0808 164.701L2.84437 163.699L2.61695 162.692L2.39864 161.682L2.1895 160.669L1.98963 159.651L1.79907 158.631L1.6179 157.606L1.44617 156.578L1.28393 155.547L1.13121 154.513L0.988062 153.475L0.854507 152.434L0.730577 151.39L0.616294 150.344L0.511679 149.294L0.416748 148.241L0.331517 147.186L0.255996 146.128L0.190198 145.068L0.134129 144.005L0.0877988 142.939L0.0512138 141.871L0.0243811 140.801L0.0073074 139.729L0 138.654L0.00246665 137.577L0.014716 136.498L0.0367579 135.418L0.0686033 134.335L0.110265 133.25L0.161757 132.164L0.223096 131.076L0.294299 129.986L0.375388 128.895L0.466383 127.802L0.56731 126.707L0.678195 125.611L0.799067 124.514L0.929956 123.416L1.0709 122.316L1.22192 121.215L1.38307 120.113L1.55438 119.01L1.73588 117.906L1.92763 116.802L2.12967 115.696L2.34204 114.59L2.56478 113.483L2.79794 112.376L3.04157 111.268L3.29571 110.16L3.56041 109.051L3.83572 107.942L4.12168 106.833L4.41834 105.724L4.72575 104.616L5.04394 103.507L5.37296 102.398L5.71285 101.29L6.06365 100.182L6.42539 99.0747L6.79811 97.9679L7.18185 96.8618L7.57663 95.7565L7.98249 94.6519L8.39943 93.5484L8.8275 92.4458L9.2667 91.3443L9.71706 90.2441L10.1786 89.145L10.6513 88.0474L11.1352 86.9512L11.6304 85.8565L12.1368 84.7635L12.6545 83.6721L13.1836 82.5826L13.724 81.4951L14.2757 80.4095L14.8389 79.3261L15.4136 78.2449L15.9998 77.1662L16.5975 76.0898L17.2068 75.0161L17.8277 73.9452L18.4603 72.8771L19.1046 71.812L19.7606 70.7501L20.4285 69.6914L21.1082 68.6362L21.7998 67.5845L22.5033 66.5366L23.2188 65.4926L23.9463 64.4527L24.6858 63.417L25.4375 62.3857L26.2013 61.3591L26.9773 60.3372L27.7655 59.3203L28.566 58.3085L29.3788 57.3021L30.2039 56.3013L31.0413 55.3063L31.8911 54.3173L32.7533 53.3345L33.6279 52.3581L34.5149 51.3884L35.4144 50.4255L36.3262 49.4696L37.2505 48.521L38.1871 47.5799L39.136 46.6464L40.0973 45.7207L41.0709 44.803L42.0567 43.8936L43.0547 42.9925L44.0648 42.1L45.087 41.2163L46.1212 40.3415L47.1674 39.4758L48.2254 38.6194L49.2954 37.7724L50.377 36.9351L51.4704 36.1076L52.5753 35.29L53.6918 34.4826L54.8197 33.6856L55.959 32.899L57.1095 32.1231L58.2713 31.3581L59.4441 30.6041L60.628 29.8613L61.8227 29.1299L63.0282 28.41L64.2444 27.7019L65.4713 27.0058L66.7086 26.3217L67.9563 25.65L69.2143 24.9907L70.4824 24.3441L71.7605 23.7104L73.0486 23.0898L74.3464 22.4824L75.6539 21.8885L76.9709 21.3082L78.2973 20.7417L79.6329 20.1893L80.9776 19.6512L82.3312 19.1275L83.6937 18.6184L85.0647 18.1241L86.4443 17.6449L87.8321 17.1809L89.228 16.7323L90.6319 16.2993L92.0436 15.8821L93.4628 15.4808L94.8895 15.0958L96.3233 14.727L97.7641 14.3748L99.2117 14.0392L100.666 13.7204L102.127 13.4187L103.593 13.134L105.066 12.8667L106.544 12.6167L108.028 12.3844L109.518 12.1696L111.012 11.9727L112.511 11.7936L114.014 11.6324L115.522 11.4894L117.035 11.3644L118.551 11.2577L120.07 11.1692L121.593 11.0992L123.12 11.0476L124.649 11.0145L126.181 11L127.715 11.0042L129.251 11.0271L130.79 11.0689L132.33 11.1295L133.871 11.2091L135.414 11.3077L136.958 11.4254L138.502 11.5621L140.046 11.718L141.591 11.8932L143.136 12.0876L144.68 12.3013L146.224 12.5344L147.766 12.7868L149.308 13.0587L150.847 13.35L152.385 13.6608L153.922 13.9911L155.455 14.3409L156.986 14.7103L158.515 15.0992L160.04 15.5076L161.561 15.9356L163.079 16.3832L164.593 16.8503L166.102 17.337L167.607 17.8432L169.107 18.3689L170.602 18.9141L172.091 19.4787L173.575 20.0628L175.052 20.6662L176.523 21.2889L177.988 21.9308L179.445 22.5919L180.895 23.272L182.338 23.9711L183.774 24.6891L185.201 25.4259L186.62 26.1814L188.03 26.9555L189.432 27.748L190.825 28.5589L192.208 29.388L193.582 30.2352L194.945 31.1003L196.299 31.9833L197.643 32.8839L198.976 33.8021L200.298 34.7377L201.609 35.6905L202.909 36.6604L204.197 37.6472L205.474 38.6508L206.738 39.6709L207.991 40.7075L209.23 41.7604L210.458 42.8294L211.672 43.9142L212.873 45.0148L214.061 46.1309L215.235 47.2624L216.395 48.409L217.542 49.5706L218.674 50.747L219.792 51.938L220.895 53.1433L221.983 54.3628L223.056 55.5963L224.115 56.8435L225.157 58.1042L226.185 59.3783L227.196 60.6654L228.191 61.9654L229.171 63.2781L230.134 64.6031L231.081 65.9403L232.011 67.2894L232.924 68.6502L233.821 70.0225L234.701 71.4059L235.563 72.8002L236.409 74.2052L237.236 75.6206L238.047 77.0462L238.84 78.4816L239.615 79.9267L240.373 81.3811L241.113 82.8446L241.835 84.3169L242.539 85.7976L243.226 87.2867L243.894 88.7837L244.545 90.2883L245.177 91.8004L245.792 93.3196L246.389 94.8457L246.968 96.3784L247.529 97.9174L248.072 99.4625L248.596 101.013L249.103 102.57L249.593 104.132L250.064 105.699L250.517 107.27L250.952 108.847L251.369 110.427L251.769 112.012L252.15 113.601L252.514 115.193L252.859 116.789L253.187 118.388L253.496 119.99L253.788 121.595L254.062 123.202L254.317 124.811L254.555 126.423L254.775 128.037L254.976 129.652L255.16 131.268L255.326 132.886L255.473 134.505L255.603 136.125L255.714 137.746L255.807 139.366L255.882 140.987L255.939 142.608L255.978 144.229L255.998 145.849L256 147.468L255.984 149.087L255.949 150.704L255.896 152.32L255.825 153.935L255.735 155.547" fill="#6360EE"/>
<path fill-rule="evenodd" clip-rule="evenodd" d="M230.787 153.29V153.29L230.7 154.585L230.598 155.879L230.482 157.171L230.35 158.461L230.205 159.748L230.044 161.033L229.869 162.314L229.679 163.593L229.475 164.869L229.256 166.142L229.023 167.411L228.775 168.676L228.513 169.938L228.236 171.195L227.945 172.448L227.64 173.697L227.321 174.942L226.987 176.181L226.639 177.416L226.277 178.645L225.901 179.869L225.511 181.088L225.107 182.301L224.69 183.508L224.258 184.709L223.813 185.904L223.354 187.092L222.881 188.274L222.395 189.449L221.895 190.617L221.382 191.778L220.855 192.932L220.315 194.078L219.762 195.217L219.196 196.347L218.617 197.47L218.025 198.584L217.42 199.69L216.802 200.787L216.171 201.876L215.528 202.955L214.873 204.026L214.205 205.087L213.525 206.139L212.832 207.18L212.128 208.213L211.412 209.235L210.684 210.247L209.944 211.249L209.193 212.24L208.431 213.22L207.657 214.19L206.872 215.149L206.077 216.097L205.271 217.034L204.454 217.959L203.627 218.873L202.79 219.775L201.943 220.666L201.086 221.545L200.219 222.412L199.344 223.267L198.459 224.11L197.565 224.941L196.662 225.759L195.751 226.566L194.832 227.36L193.904 228.141L192.969 228.91L192.025 229.666L191.075 230.41L190.117 231.141L189.151 231.859L188.179 232.564L187.201 233.257L186.215 233.936L185.224 234.603L184.226 235.256L183.223 235.897L182.214 236.524L181.199 237.139L180.179 237.74L179.154 238.328L178.124 238.903L177.089 239.465L176.05 240.013L175.006 240.548L173.958 241.07L172.906 241.579L171.851 242.074L170.791 242.557L169.729 243.025L168.663 243.481L167.594 243.923L166.522 244.352L165.447 244.768L164.37 245.17L163.291 245.559L162.209 245.934L161.125 246.296L160.04 246.645L158.952 246.981L157.863 247.303L156.773 247.611L155.682 247.906L154.589 248.188L153.496 248.457L152.402 248.712L151.307 248.953L150.212 249.181L149.116 249.396L148.021 249.597L146.925 249.785L145.83 249.959L144.735 250.12L143.641 250.268L142.548 250.402L141.455 250.522L140.363 250.629L139.273 250.722L138.184 250.802L137.096 250.869L136.01 250.922L134.926 250.961L133.844 250.987L132.764 251L131.686 250.999L130.611 250.985L129.538 250.957L128.469 250.916L127.402 250.861L126.339 250.793L125.278 250.712L124.222 250.617L123.169 250.509L122.12 250.388L121.075 250.254L120.034 250.107L118.998 249.946L117.966 249.773L116.939 249.587L115.917 249.388L114.9 249.177L113.889 248.953L112.882 248.717L111.882 248.468L110.887 248.207L109.898 247.934L108.915 247.65L107.939 247.353L106.968 247.046L106.005 246.726L105.048 246.396L104.097 246.055L103.154 245.703L102.218 245.341L101.289 244.968L100.367 244.585L99.4528 244.193L98.546 243.791L97.6467 243.38L96.755 242.96L95.871 242.532L94.9949 242.095L94.1265 241.65L93.266 241.197L92.4133 240.737L91.5686 240.27L90.7318 239.796L89.9029 239.315L89.082 238.828L88.269 238.334L87.4639 237.835L86.6666 237.331L85.8772 236.821L85.0956 236.306L84.3218 235.786L83.5556 235.262L82.7971 234.734L82.0462 234.202L81.3028 233.666L80.5668 233.126L79.8381 232.583L79.1167 232.037L78.4024 231.488L77.6952 230.936L76.995 230.382L76.3016 229.825L75.615 229.267L74.935 228.706L74.2615 228.143L73.5945 227.579L72.9338 227.013L72.2792 226.445L71.6308 225.876L70.9883 225.306L70.3516 224.734L69.7207 224.162L69.0954 223.588L68.4756 223.014L67.8611 222.439L67.2519 221.863L66.6478 221.286L66.0487 220.708L65.4545 220.131L64.865 219.552L64.2802 218.973L63.6998 218.394L63.1238 217.814L62.552 217.234L61.9844 216.653L61.4208 216.072L60.8611 215.491L60.3052 214.909L59.753 214.328L59.2044 213.745L58.6592 213.162L58.1175 212.579L57.5791 211.996L57.0439 211.412L56.5118 210.827L55.9828 210.241L55.4569 209.655L54.9339 209.069L54.4138 208.481L53.8965 207.892L53.3821 207.303L52.8705 206.712L52.3617 206.121L51.8556 205.528L51.3522 204.933L50.8516 204.337L50.3538 203.74L49.8587 203.141L49.3663 202.54L48.8768 201.937L48.3901 201.333L47.9063 200.726L47.4254 200.117L46.9475 199.505L46.4726 198.892L46.0008 198.275L45.5321 197.656L45.0667 197.035L44.6046 196.41L44.1458 195.783L43.6905 195.153L43.2388 194.519L42.7907 193.883L42.3463 193.243L41.9057 192.6L41.4691 191.953L41.0364 191.303L40.6079 190.65L40.1835 189.993L39.7633 189.332L39.3476 188.668L38.9362 188L38.5294 187.329L38.1272 186.653L37.7297 185.974L37.3368 185.291L36.9488 184.604L36.5656 183.914L36.1874 183.22L35.8142 182.521L35.446 181.82L35.0829 181.114L34.7251 180.404L34.3725 179.691L34.0252 178.974L33.6833 178.253L33.3469 177.528L33.0161 176.799L32.6909 176.067L32.3714 175.33L32.0576 174.59L31.7497 173.847L31.4476 173.099L31.1516 172.348L30.8616 171.593L30.5778 170.835L30.3001 170.073L30.0287 169.307L29.7637 168.537L29.5051 167.764L29.253 166.988L29.0075 166.208L28.7686 165.425L28.5364 164.638L28.3111 163.848L28.0926 163.054L27.881 162.257L27.6765 161.457L27.4791 160.654L27.2888 159.848L27.1058 159.038L26.9302 158.226L26.7619 157.41L26.601 156.592L26.4477 155.77L26.3019 154.946L26.1637 154.119L26.0332 153.29L25.9103 152.458L25.7951 151.623L25.6876 150.785L25.5879 149.946L25.4959 149.104L25.4117 148.259L25.3354 147.412L25.2668 146.563L25.206 145.712L25.153 144.859L25.1079 144.004L25.0707 143.147L25.0412 142.287L25.0196 141.427L25.0059 140.564L25 139.699L25.002 138.833L25.0118 137.965L25.0296 137.095L25.0552 136.224L25.0887 135.352L25.1302 134.478L25.1795 133.602L25.2368 132.726L25.3021 131.848L25.3753 130.968L25.4565 130.088L25.5457 129.206L25.643 128.323L25.7483 127.44L25.8617 126.555L25.9833 125.669L26.1129 124.783L26.2508 123.895L26.3968 123.007L26.5511 122.119L26.7137 121.229L26.8846 120.339L27.0638 119.449L27.2515 118.558L27.4475 117.667L27.652 116.775L27.865 115.883L28.0866 114.991L28.3167 114.099L28.5554 113.207L28.8028 112.315L29.0588 111.423L29.3236 110.531L29.5971 109.639L29.8793 108.748L30.1704 107.857L30.4704 106.967L30.7791 106.077L31.0968 105.188L31.4234 104.299L31.7589 103.411L32.1034 102.524L32.4568 101.638L32.8192 100.753L33.1906 99.8686L33.571 98.9855L33.9604 98.1036L34.3588 97.2229L34.7663 96.3435L35.1829 95.4655L35.6086 94.589L36.0435 93.7141L36.4875 92.8407L36.9407 91.9691L37.4031 91.0993L37.8748 90.2314L38.3558 89.3655L38.8461 88.5017L39.3457 87.6401L39.8548 86.7808L40.3732 85.9239L40.9011 85.0696L41.4385 84.2179L41.9855 83.3689L42.542 82.5229L43.1081 81.6798L43.6838 80.8399L44.2693 80.0033L44.8644 79.1701L45.4692 78.3404L46.0839 77.5144L46.7083 76.6923L47.3426 75.8742L47.9867 75.0602L48.6407 74.2506L49.3047 73.4454L49.9785 72.6449L50.6624 71.8493L51.3562 71.0586L52.0599 70.2731L52.7737 69.4929L53.4975 68.7182L54.2313 67.9492L54.975 67.1861L55.7287 66.4289L56.4923 65.6779L57.2658 64.9332L58.0492 64.1949L58.8425 63.4632L59.6455 62.7383L60.4584 62.0203L61.2809 61.3093L62.1131 60.6055L62.955 59.9091L63.8064 59.2201L64.6674 58.5387L65.5378 57.8651L66.4176 57.1993L67.3067 56.5416L68.2051 55.892L69.1127 55.2508L70.0295 54.618L70.9553 53.9938L71.8902 53.3783L72.8339 52.7717L73.7866 52.1741L74.7479 51.5857L75.718 51.0066L76.6967 50.4369L77.6839 49.8768L78.6796 49.3265L79.6836 48.7861L80.6959 48.2557L81.7163 47.7355L82.7448 47.2257L83.7813 46.7264L84.8256 46.2377L85.8777 45.7599L86.9375 45.293L88.0048 44.8373L89.0796 44.3929L90.1617 43.96L91.2509 43.5386L92.3473 43.1291L93.4505 42.7314L94.5606 42.3459L95.6774 41.9726L96.8007 41.6117L97.9304 41.2633L99.0663 40.9277L100.208 40.6049L101.356 40.2951L102.51 39.9984L103.67 39.715L104.834 39.445L106.005 39.1886L107.18 38.9458L108.36 38.7169L109.545 38.5018L110.735 38.3007L111.929 38.1137L113.127 37.941L114.33 37.7825L115.536 37.6384L116.746 37.5088L117.959 37.3937L119.176 37.2932L120.396 37.2073L121.619 37.1361L122.845 37.0798L124.073 37.0383L125.303 37.0116L126.536 37L127.771 37.0034L129.007 37.0218L130.245 37.0554L131.484 37.1042L132.725 37.1682L133.966 37.2476L135.208 37.3422L136.451 37.4522L137.694 37.5777L138.937 37.7186L140.18 37.875L141.422 38.0469L142.664 38.2344L143.906 38.4375L145.146 38.6563L146.385 38.8906L147.623 39.1407L148.859 39.4064L150.093 39.6878L151.325 39.985L152.555 40.2978L153.782 40.6264L155.006 40.9708L156.228 41.3308L157.446 41.7066L158.66 42.0982L159.871 42.5054L161.078 42.9283L162.281 43.367L163.48 43.8212L164.673 44.2911L165.862 44.7766L167.046 45.2775L168.224 45.7939L169.397 46.3258L170.564 46.873L171.725 47.4354L172.88 48.0131L174.029 48.6058L175.171 49.2136L176.306 49.8364L177.433 50.474L178.554 51.1263L179.667 51.7933L180.773 52.4749L181.87 53.1709L182.96 53.8813L184.041 54.6059L185.113 55.3446L186.177 56.0972L187.232 56.8638L188.278 57.6441L189.315 58.438L190.342 59.2454L191.36 60.0661L192.367 60.9001L193.365 61.7471L194.353 62.6071L195.33 63.4798L196.296 64.3653L197.252 65.2632L198.197 66.1735L199.131 67.096L200.053 68.0305L200.964 68.9769L201.864 69.9351L202.751 70.9048L203.627 71.8859L204.491 72.8782L205.342 73.8816L206.181 74.8959L207.008 75.9209L207.822 76.9564L208.623 78.0023L209.411 79.0583L210.186 80.1243L210.948 81.2001L211.696 82.2855L212.431 83.3803L213.153 84.4842L213.861 85.5972L214.555 86.719L215.235 87.8493L215.901 88.988L216.553 90.1349L217.192 91.2897L217.815 92.4523L218.425 93.6224L219.021 94.7998L219.602 95.9842L220.168 97.1755L220.721 98.3735L221.259 99.5778L221.782 100.788L222.291 102.005L222.786 103.227L223.266 104.455L223.732 105.688L224.183 106.926L224.62 108.169L225.042 109.417L225.45 110.669L225.844 111.926L226.223 113.186L226.588 114.451L226.938 115.719L227.274 116.99L227.595 118.265L227.902 119.544L228.194 120.825L228.472 122.108L228.736 123.395L228.985 124.684L229.22 125.975L229.44 127.268L229.646 128.563L229.837 129.859L230.014 131.157L230.176 132.457L230.324 133.757L230.457 135.059L230.576 136.361L230.68 137.665L230.77 138.968L230.845 140.272L230.905 141.576L230.951 142.88L230.982 144.184L230.998 145.487L231 146.79L230.987 148.092L230.959 149.394L230.916 150.694L230.859 151.992L230.787 153.29" fill="#0703C9"/>
<path fill-rule="evenodd" clip-rule="evenodd" d="M202.83 151.38V151.38L202.761 152.409L202.68 153.437L202.587 154.463L202.483 155.487L202.367 156.51L202.239 157.531L202.1 158.549L201.949 159.565L201.786 160.578L201.612 161.589L201.426 162.597L201.229 163.603L201.02 164.605L200.8 165.604L200.568 166.599L200.325 167.591L200.071 168.58L199.805 169.564L199.528 170.545L199.24 171.522L198.941 172.494L198.63 173.462L198.309 174.426L197.976 175.385L197.633 176.339L197.278 177.288L196.913 178.232L196.536 179.171L196.149 180.105L195.751 181.033L195.343 181.955L194.924 182.871L194.494 183.782L194.054 184.686L193.603 185.584L193.142 186.476L192.67 187.361L192.189 188.24L191.697 189.111L191.195 189.976L190.683 190.834L190.161 191.684L189.629 192.527L189.088 193.362L188.536 194.19L187.976 195.01L187.406 195.822L186.826 196.626L186.237 197.422L185.639 198.209L185.032 198.988L184.416 199.759L183.792 200.52L183.158 201.273L182.516 202.017L181.866 202.753L181.208 203.479L180.541 204.195L179.867 204.903L179.185 205.601L178.495 206.29L177.798 206.969L177.093 207.639L176.382 208.299L175.663 208.949L174.938 209.59L174.206 210.22L173.467 210.841L172.723 211.452L171.972 212.053L171.215 212.643L170.452 213.224L169.684 213.794L168.91 214.355L168.131 214.905L167.346 215.445L166.557 215.974L165.763 216.493L164.964 217.002L164.16 217.501L163.352 217.989L162.54 218.466L161.724 218.933L160.904 219.39L160.08 219.836L159.253 220.272L158.422 220.697L157.588 221.112L156.751 221.516L155.91 221.91L155.067 222.293L154.221 222.665L153.372 223.027L152.521 223.378L151.668 223.719L150.813 224.049L149.955 224.369L149.096 224.678L148.234 224.976L147.372 225.263L146.507 225.541L145.642 225.807L144.775 226.063L143.907 226.308L143.038 226.542L142.168 226.766L141.298 226.979L140.427 227.182L139.555 227.374L138.683 227.555L137.811 227.726L136.939 227.886L136.067 228.035L135.195 228.173L134.323 228.301L133.452 228.418L132.582 228.525L131.712 228.62L130.843 228.705L129.974 228.78L129.107 228.843L128.241 228.896L127.377 228.938L126.514 228.969L125.652 228.99L124.792 229L123.934 228.999L123.078 228.988L122.225 228.966L121.373 228.933L120.524 228.89L119.677 228.836L118.833 228.771L117.992 228.696L117.154 228.61L116.319 228.514L115.487 228.407L114.658 228.29L113.833 228.163L113.012 228.025L112.194 227.878L111.381 227.72L110.571 227.552L109.766 227.374L108.965 227.186L108.168 226.989L107.376 226.781L106.589 226.565L105.806 226.339L105.029 226.103L104.256 225.859L103.489 225.605L102.727 225.343L101.971 225.072L101.22 224.792L100.474 224.504L99.7349 224.208L99.0011 223.904L98.2731 223.593L97.5512 223.273L96.8352 222.947L96.1253 222.613L95.4216 222.273L94.7241 221.926L94.0327 221.572L93.3477 221.213L92.6689 220.847L91.9964 220.476L91.3302 220.099L90.6703 219.717L90.0167 219.33L89.3695 218.938L88.7285 218.542L88.0938 218.141L87.4654 217.736L86.8431 217.327L86.2271 216.914L85.6171 216.498L85.0133 216.078L84.4154 215.655L83.8236 215.23L83.2376 214.801L82.6575 214.37L82.0832 213.936L81.5146 213.5L80.9516 213.061L80.3941 212.621L79.8421 212.179L79.2954 211.735L78.7541 211.29L78.2179 210.843L77.6869 210.394L77.1609 209.945L76.6398 209.494L76.1235 209.042L75.612 208.589L75.1052 208.135L74.6029 207.68L74.1051 207.224L73.6116 206.768L73.1224 206.311L72.6374 205.853L72.1565 205.395L71.6796 204.937L71.2065 204.478L70.7372 204.018L70.2716 203.558L69.8095 203.098L69.351 202.637L68.8958 202.176L68.4439 201.715L67.9952 201.254L67.5496 200.792L67.1071 200.33L66.6674 199.868L66.2307 199.405L65.7967 198.942L65.3654 198.479L64.9367 198.015L64.5106 197.551L64.0871 197.087L63.6659 196.622L63.2472 196.156L62.8309 195.69L62.4168 195.223L62.005 194.756L61.5955 194.287L61.1882 193.818L60.7831 193.348L60.3802 192.877L59.9794 192.405L59.5809 191.932L59.1845 191.457L58.7904 190.981L58.3984 190.504L58.0087 190.025L57.6213 189.545L57.2361 189.062L56.8532 188.579L56.4728 188.093L56.0947 187.605L55.7191 187.116L55.346 186.624L54.9754 186.13L54.6075 185.634L54.2423 185.136L53.8798 184.635L53.5202 184.132L53.1635 183.627L52.8097 183.118L52.4589 182.607L52.1113 182.094L51.7669 181.578L51.4257 181.058L51.0878 180.536L50.7533 180.012L50.4223 179.484L50.0949 178.953L49.771 178.42L49.4508 177.883L49.1343 177.344L48.8216 176.801L48.5126 176.256L48.2076 175.707L47.9065 175.156L47.6093 174.601L47.3162 174.044L47.0272 173.483L46.7423 172.919L46.4616 172.352L46.1851 171.783L45.9129 171.21L45.6451 170.634L45.3818 170.055L45.1228 169.473L44.8685 168.889L44.6187 168.301L44.3735 167.71L44.1331 167.116L43.8974 166.519L43.6665 165.92L43.4405 165.317L43.2195 164.712L43.0035 164.103L42.7925 163.492L42.5866 162.878L42.3859 162.262L42.1904 161.642L42.0002 161.02L41.8154 160.395L41.636 159.767L41.462 159.137L41.2936 158.504L41.1308 157.868L40.9736 157.23L40.8222 156.589L40.6765 155.946L40.5366 155.301L40.4027 154.653L40.2746 154.003L40.1525 153.35L40.0365 152.696L39.9265 152.039L39.8225 151.38L39.7247 150.719L39.633 150.055L39.5474 149.39L39.468 148.723L39.3948 148.054L39.3278 147.383L39.267 146.711L39.2124 146.036L39.164 145.36L39.1218 144.682L39.0859 144.003L39.0562 143.322L39.0328 142.64L39.0156 141.956L39.0047 141.27L39 140.583L39.0016 139.895L39.0094 139.206L39.0235 138.515L39.0439 137.823L39.0706 137.13L39.1036 136.436L39.1429 135.74L39.1885 135.044L39.2405 134.346L39.2988 133.648L39.3634 132.948L39.4345 132.248L39.5119 131.547L39.5958 130.845L39.686 130.142L39.7828 129.438L39.886 128.734L39.9958 128.029L40.1121 127.324L40.2349 126.618L40.3643 125.911L40.5004 125.204L40.6431 124.497L40.7924 123.789L40.9485 123.081L41.1113 122.373L41.2809 121.664L41.4573 120.956L41.6405 120.247L41.8305 119.538L42.0274 118.829L42.2313 118.121L42.4421 117.412L42.6598 116.704L42.8845 115.996L43.1163 115.288L43.355 114.581L43.6009 113.874L43.8538 113.168L44.1138 112.462L44.3809 111.756L44.6551 111.052L44.9365 110.348L45.225 109.645L45.5207 108.942L45.8235 108.241L46.1335 107.54L46.4507 106.841L46.7751 106.142L47.1068 105.445L47.4457 104.748L47.7919 104.053L48.1454 103.359L48.5062 102.667L48.8743 101.976L49.2499 101.287L49.6328 100.599L50.0231 99.9126L50.4209 99.2281L50.8261 98.5455L51.2389 97.8648L51.6592 97.1861L52.087 96.5095L52.5224 95.8351L52.9655 95.163L53.4162 94.4933L53.8745 93.8261L54.3406 93.1615L54.8144 92.4996L55.2959 91.8405L55.7852 91.1844L56.2823 90.5313L56.7873 89.8814L57.3001 89.2348L57.8208 88.5916L58.3493 87.952L58.8858 87.3161L59.4302 86.684L59.9826 86.0559L60.5429 85.4319L61.1111 84.8121L61.6873 84.1967L62.2715 83.5858L62.8636 82.9796L63.4636 82.3781L64.0715 81.7815L64.6874 81.1899L65.311 80.6034L65.9426 80.0222L66.5819 79.4463L67.229 78.8759L67.8838 78.3112L68.5464 77.7521L69.2166 77.1988L69.8944 76.6515L70.5798 76.1102L71.2728 75.575L71.9732 75.0462L72.6811 74.5237L73.3963 74.0077L74.1189 73.4983L74.8487 72.9956L75.5858 72.4997L76.33 72.0108L77.0814 71.5289L77.8398 71.0542L78.6052 70.5868L79.3775 70.1267L80.1566 69.6742L80.9425 69.2293L81.7352 68.7921L82.5345 68.3628L83.3404 67.9414L84.1528 67.5282L84.9716 67.1232L85.7967 66.7266L86.6282 66.3384L87.4658 65.9588L88.3095 65.5879L89.1592 65.2259L90.0148 64.8729L90.8763 64.529L91.7435 64.1942L92.6163 63.8689L93.4946 63.553L94.3784 63.2467L95.2674 62.9502L96.1617 62.6635L97.0611 62.3868L97.9654 62.1201L98.8746 61.8637L99.7886 61.6176L100.707 61.3819L101.63 61.1568L102.558 60.9423L103.489 60.7386L104.425 60.5458L105.364 60.3639L106.308 60.193L107.255 60.0333L108.206 59.8847L109.16 59.7475L110.117 59.6216L111.077 59.5072L112.041 59.4042L113.007 59.3127L113.975 59.2329L114.946 59.1647L115.92 59.1082L116.896 59.0634L117.873 59.0304L118.853 59.0093L119.834 59L120.817 59.0027L121.802 59.0173L122.787 59.044L123.774 59.0828L124.761 59.1336L125.75 59.1967L126.738 59.2718L127.728 59.3592L128.717 59.4589L129.707 59.5708L130.696 59.6951L131.686 59.8317L132.674 59.9806L133.663 60.142L134.65 60.3157L135.637 60.5019L136.622 60.7005L137.606 60.9116L138.589 61.1352L139.569 61.3712L140.548 61.6198L141.525 61.8808L142.5 62.1544L143.473 62.4404L144.442 62.7389L145.409 63.0499L146.373 63.3735L147.334 63.7094L148.292 64.0579L149.246 64.4187L150.196 64.792L151.143 65.1776L152.085 65.5756L153.023 65.9858L153.957 66.4083L154.886 66.843L155.811 67.2898L156.73 67.7487L157.644 68.2196L158.553 68.7024L159.457 69.1971L160.355 69.7036L161.247 70.2219L162.133 70.7517L163.013 71.2932L163.887 71.8461L164.754 72.4104L165.615 72.986L166.469 73.5728L167.316 74.1707L168.156 74.7796L168.989 75.3995L169.814 76.0302L170.632 76.6715L171.442 77.3235L172.244 77.986L173.038 78.6589L173.824 79.3421L174.602 80.0354L175.372 80.7388L176.133 81.4521L176.885 82.1752L177.628 82.908L178.363 83.6504L179.088 84.4022L179.804 85.1634L180.511 85.9337L181.208 86.7131L181.896 87.5014L182.573 88.2985L183.241 89.1042L183.899 89.9185L184.547 90.7411L185.185 91.5719L185.813 92.4108L186.43 93.2576L187.036 94.1122L187.632 94.9744L188.217 95.8441L188.792 96.7211L189.355 97.6053L189.908 98.4964L190.449 99.3943L190.98 100.299L191.499 101.21L192.007 102.127L192.504 103.051L192.989 103.98L193.463 104.916L193.926 105.857L194.377 106.803L194.817 107.755L195.245 108.711L195.662 109.673L196.067 110.639L196.461 111.61L196.843 112.586L197.214 113.565L197.573 114.549L197.921 115.536L198.257 116.527L198.582 117.522L198.895 118.52L199.197 119.522L199.487 120.526L199.766 121.534L200.033 122.544L200.289 123.557L200.534 124.572L200.766 125.59L200.988 126.609L201.198 127.631L201.396 128.655L201.583 129.681L201.758 130.708L201.922 131.737L202.074 132.767L202.215 133.798L202.344 134.83L202.462 135.863L202.568 136.897L202.663 137.932L202.746 138.967L202.817 140.003L202.877 141.039L202.925 142.075L202.961 143.11L202.986 144.146L202.999 145.182L203 146.217L202.99 147.251L202.967 148.285L202.933 149.317L202.888 150.349L202.83 151.38" fill="#6360EE"/>
<path fill-rule="evenodd" clip-rule="evenodd" d="M186.863 150.447V150.447L186.808 151.277L186.742 152.105L186.668 152.932L186.584 153.758L186.49 154.582L186.388 155.404L186.275 156.225L186.154 157.043L186.023 157.86L185.883 158.675L185.733 159.487L185.574 160.297L185.406 161.105L185.229 161.91L185.043 162.712L184.847 163.512L184.642 164.308L184.429 165.102L184.206 165.892L183.974 166.679L183.733 167.463L183.483 168.243L183.224 169.02L182.956 169.793L182.68 170.561L182.395 171.326L182.1 172.087L181.797 172.844L181.486 173.596L181.166 174.344L180.837 175.087L180.499 175.826L180.154 176.559L179.799 177.288L179.436 178.012L179.065 178.731L178.686 179.444L178.298 180.152L177.902 180.854L177.498 181.551L177.086 182.242L176.666 182.928L176.238 183.607L175.802 184.28L175.359 184.947L174.907 185.608L174.448 186.262L173.982 186.91L173.508 187.552L173.027 188.186L172.538 188.814L172.042 189.435L171.54 190.049L171.03 190.656L170.513 191.255L169.99 191.848L169.46 192.433L168.924 193.01L168.381 193.581L167.832 194.143L167.276 194.698L166.715 195.246L166.148 195.785L165.576 196.317L164.997 196.841L164.413 197.357L163.824 197.866L163.23 198.366L162.63 198.858L162.026 199.342L161.417 199.818L160.803 200.286L160.184 200.746L159.562 201.198L158.934 201.641L158.303 202.076L157.668 202.503L157.029 202.921L156.385 203.331L155.739 203.733L155.089 204.126L154.435 204.511L153.778 204.887L153.118 205.256L152.455 205.615L151.789 205.966L151.12 206.309L150.449 206.643L149.775 206.969L149.098 207.286L148.42 207.595L147.739 207.895L147.056 208.186L146.371 208.47L145.684 208.744L144.995 209.01L144.305 209.268L143.614 209.517L142.92 209.757L142.226 209.989L141.53 210.212L140.834 210.427L140.136 210.633L139.437 210.83L138.738 211.019L138.038 211.2L137.337 211.372L136.636 211.535L135.935 211.69L135.233 211.836L134.531 211.973L133.829 212.102L133.127 212.222L132.425 212.334L131.724 212.437L131.023 212.531L130.322 212.617L129.622 212.694L128.922 212.762L128.223 212.822L127.525 212.874L126.828 212.916L126.133 212.95L125.438 212.975L124.744 212.992L124.052 213L123.362 212.999L122.673 212.99L121.986 212.972L121.3 212.946L120.617 212.911L119.935 212.867L119.256 212.815L118.579 212.755L117.904 212.686L117.232 212.608L116.563 212.522L115.896 212.428L115.232 212.326L114.571 212.215L113.913 212.096L113.258 211.968L112.606 211.833L111.958 211.69L111.313 211.538L110.672 211.379L110.034 211.212L109.401 211.038L108.771 210.855L108.145 210.666L107.523 210.468L106.906 210.264L106.293 210.053L105.684 209.834L105.079 209.609L104.479 209.377L103.884 209.138L103.294 208.893L102.708 208.642L102.127 208.385L101.55 208.122L100.979 207.853L100.413 207.579L99.8511 207.299L99.2946 207.014L98.7432 206.724L98.1969 206.43L97.6556 206.131L97.1194 205.827L96.5883 205.519L96.0622 205.207L95.5413 204.892L95.0254 204.572L94.5145 204.249L94.0087 203.923L93.5079 203.593L93.012 203.26L92.5211 202.925L92.0351 202.587L91.5539 202.246L91.0775 201.903L90.6059 201.557L90.139 201.21L89.6767 200.86L89.219 200.509L88.7659 200.155L88.3172 199.801L87.8729 199.444L87.4329 199.087L86.9972 198.727L86.5657 198.367L86.1382 198.006L85.7148 197.644L85.2954 197.28L84.8799 196.916L84.4682 196.551L84.0603 196.185L83.656 195.819L83.2553 195.451L82.8581 195.084L82.4644 194.715L82.074 194.347L81.687 193.977L81.3031 193.608L80.9223 193.238L80.5446 192.867L80.1698 192.497L79.7979 192.126L79.4288 191.755L79.0625 191.383L78.6988 191.012L78.3376 190.64L77.979 190.268L77.6228 189.895L77.2689 189.523L76.9174 189.15L76.5681 188.777L76.2209 188.404L75.8759 188.03L75.533 187.656L75.192 187.282L74.8531 186.907L74.5161 186.532L74.1809 186.156L73.8477 185.78L73.5162 185.403L73.1866 185.026L72.8588 184.648L72.5327 184.269L72.2084 183.889L71.8859 183.509L71.5651 183.127L71.2461 182.745L70.9288 182.361L70.6134 181.977L70.2997 181.591L69.9878 181.204L69.6778 180.815L69.3697 180.425L69.0634 180.034L68.7591 179.641L68.4568 179.246L68.1565 178.85L67.8583 178.452L67.5621 178.052L67.2682 177.651L66.9764 177.247L66.687 176.842L66.3999 176.434L66.1151 176.025L65.8328 175.613L65.553 175.199L65.2758 174.783L65.0011 174.365L64.7292 173.944L64.46 173.521L64.1936 173.096L63.93 172.668L63.6693 172.238L63.4116 171.806L63.1569 171.371L62.9052 170.934L62.6565 170.494L62.411 170.052L62.1686 169.608L61.9295 169.161L61.6935 168.712L61.4609 168.26L61.2316 167.805L61.0057 167.349L60.7831 166.89L60.5641 166.428L60.3485 165.964L60.1365 165.498L59.9281 165.029L59.7234 164.557L59.5223 164.084L59.325 163.607L59.1315 163.129L58.9418 162.648L58.756 162.165L58.5741 161.679L58.3962 161.191L58.2223 160.701L58.0525 160.209L57.8868 159.714L57.7252 159.217L57.5679 158.717L57.4148 158.216L57.2661 157.712L57.1217 157.206L56.9816 156.698L56.8461 156.188L56.715 155.676L56.5885 155.162L56.4666 154.646L56.3494 154.127L56.2368 153.607L56.129 153.085L56.0259 152.561L55.9276 152.035L55.8342 151.508L55.7457 150.978L55.662 150.447L55.5833 149.914L55.5095 149.38L55.4406 148.844L55.3767 148.306L55.3178 147.767L55.2638 147.227L55.2149 146.685L55.1709 146.141L55.132 145.596L55.0981 145.05L55.0692 144.502L55.0453 143.954L55.0264 143.404L55.0126 142.852L55.0038 142.3L55 141.747L55.0013 141.192L55.0076 140.636L55.019 140.08L55.0354 139.522L55.0569 138.964L55.0834 138.404L55.115 137.844L55.1517 137.282L55.1936 136.72L55.2405 136.157L55.2925 135.594L55.3497 135.029L55.412 134.464L55.4795 133.898L55.5522 133.332L55.6301 132.765L55.7131 132.197L55.8015 131.629L55.8951 131.061L55.9939 130.492L56.0981 129.922L56.2076 129.353L56.3225 128.783L56.4427 128.212L56.5683 127.642L56.6994 127.071L56.8358 126.5L56.9778 125.929L57.1252 125.358L57.2782 124.787L57.4367 124.216L57.6008 123.644L57.7704 123.074L57.9457 122.503L58.1266 121.932L58.3131 121.362L58.5053 120.792L58.7031 120.222L58.9067 119.653L59.116 119.084L59.331 118.516L59.5517 117.948L59.7781 117.38L60.0104 116.814L60.2483 116.248L60.4921 115.682L60.7416 115.118L60.9969 114.554L61.258 113.991L61.525 113.429L61.7978 112.868L62.0764 112.308L62.3609 111.749L62.6513 111.191L62.9476 110.634L63.2499 110.078L63.5581 109.524L63.8722 108.971L64.1924 108.419L64.5186 107.869L64.8508 107.32L65.1891 106.774L65.5334 106.228L65.8839 105.685L66.2405 105.143L66.6032 104.603L66.9722 104.066L67.3473 103.53L67.7286 102.997L68.1162 102.466L68.5101 101.937L68.9102 101.41L69.3166 100.887L69.7294 100.366L70.1484 99.8473L70.5739 99.3319L71.0057 98.8194L71.4438 98.31L71.8884 97.8039L72.3394 97.301L72.7968 96.8015L73.2605 96.3056L73.7307 95.8133L74.2073 95.3247L74.6902 94.84L75.1795 94.3592L75.6752 93.8825L76.1772 93.4098L76.6855 92.9414L77.2001 92.4773L77.7209 92.0177L78.248 91.5625L78.7812 91.112L79.3207 90.6661L79.8662 90.225L80.4179 89.7888L80.9757 89.3575L81.5394 88.9313L82.1091 88.5103L82.6848 88.0944L83.2664 87.6839L83.8539 87.2788L84.4471 86.8792L85.0461 86.4852L85.6509 86.0968L86.2613 85.7143L86.8773 85.3376L87.4989 84.9668L88.126 84.6021L88.7586 84.2436L89.3966 83.8913L90.04 83.5453L90.6886 83.2057L91.3425 82.8727L92.0015 82.5463L92.6657 82.2267L93.3349 81.9139L94.009 81.608L94.6881 81.3091L95.372 81.0174L96.0607 80.7329L96.7541 80.4557L97.452 80.1859L98.1546 79.9237L98.8615 79.6692L99.5728 79.4224L100.288 79.1834L101.008 78.9523L101.732 78.7293L102.46 78.5145L103.192 78.3078L103.927 78.1095L104.667 77.9195L105.41 77.7381L106.156 77.5653L106.906 77.4011L107.659 77.2457L108.415 77.0991L109.175 76.9614L109.937 76.8327L110.702 76.713L111.47 76.6024L112.24 76.501L113.013 76.4087L113.789 76.3257L114.566 76.252L115.346 76.1877L116.128 76.1327L116.911 76.0872L117.697 76.0511L118.484 76.0245L119.272 76.0075L120.062 76L120.853 76.0022L121.645 76.014L122.438 76.0355L123.233 76.0667L124.027 76.1077L124.823 76.1585L125.619 76.2191L126.415 76.2895L127.211 76.3698L128.008 76.46L128.804 76.5602L129.601 76.6702L130.397 76.7903L131.192 76.9203L131.987 77.0603L132.781 77.2104L133.574 77.3704L134.366 77.5405L135.157 77.7207L135.946 77.9109L136.734 78.1112L137.52 78.3216L138.305 78.542L139.088 78.7725L139.868 79.0131L140.647 79.2638L141.422 79.5245L142.196 79.7953L142.967 80.076L143.734 80.3669L144.499 80.6677L145.261 80.9784L146.02 81.2992L146.775 81.6298L147.526 81.9702L148.274 82.3205L149.018 82.6806L149.758 83.0504L150.494 83.4299L151.226 83.819L151.953 84.2177L152.676 84.6259L153.394 85.0435L154.107 85.4705L154.815 85.9068L155.519 86.3524L156.217 86.8072L156.91 87.271L157.597 87.7439L158.279 88.2258L158.955 88.7165L159.625 89.2161L160.289 89.7243L160.947 90.2412L161.599 90.7666L162.245 91.3005L162.884 91.8428L163.517 92.3933L164.143 92.952L164.763 93.5189L165.375 94.0937L165.98 94.6765L166.579 95.267L167.17 95.8653L167.754 96.4712L168.33 97.0846L168.899 97.7054L169.46 98.3335L170.013 98.9688L170.559 99.6111L171.097 100.26L171.626 100.917L172.148 101.58L172.661 102.249L173.166 102.925L173.663 103.608L174.151 104.296L174.631 104.991L175.102 105.692L175.564 106.399L176.018 107.111L176.462 107.829L176.898 108.553L177.325 109.282L177.743 110.016L178.152 110.756L178.552 111.5L178.942 112.249L179.324 113.003L179.696 113.761L180.059 114.524L180.413 115.291L180.758 116.062L181.093 116.836L181.42 117.615L181.737 118.398L182.044 119.184L182.343 119.973L182.632 120.766L182.912 121.562L183.183 122.36L183.444 123.162L183.696 123.966L183.939 124.773L184.173 125.583L184.397 126.395L184.612 127.209L184.818 128.025L185.015 128.843L185.202 129.663L185.38 130.485L185.549 131.309L185.709 132.134L185.859 132.96L186.001 133.788L186.132 134.617L186.255 135.447L186.368 136.278L186.472 137.11L186.567 137.943L186.652 138.776L186.728 139.61L186.795 140.444L186.853 141.279L186.901 142.113L186.939 142.948L186.969 143.783L186.989 144.618L186.999 145.452L187 146.286L186.992 147.12L186.974 147.953L186.946 148.785L186.91 149.617L186.863 150.447" fill="#0703C9"/>
</svg>
