<svg width="469" height="389" viewBox="0 0 469 389" fill="none" xmlns="http://www.w3.org/2000/svg">
<circle cx="234" cy="235" r="154" fill="url(#paint0_linear_727_822)"/>
<path d="M63.5375 248.329L63.6648 250.515L42.2511 251.763L42.1238 249.576L51.3781 249.037L50.6717 236.908L41.4173 237.447L41.2917 235.291L62.7055 234.043L62.831 236.2L52.5884 236.796L53.2949 248.926L63.5375 248.329Z" fill="white"/>
<path d="M66.9637 195.529L64.3798 210.182L43.2557 206.458L45.7823 192.129L47.6731 192.462L45.5268 204.634L52.7947 205.916L54.7118 195.044L56.6026 195.377L54.6855 206.249L62.8693 207.692L65.0729 195.195L66.9637 195.529Z" fill="white"/>
<path d="M80.4341 157.368L74.9801 170.011L55.2843 161.515L56.1518 159.505L74.0845 167.24L78.6711 156.607L80.4341 157.368Z" fill="white"/>
<path d="M102.08 123.949L93.857 134.994L76.6514 122.185L77.9592 120.429L93.6247 132.091L100.54 122.802L102.08 123.949Z" fill="white"/>
<path d="M125.132 101.735C120.375 105.726 114.218 104.783 110.072 99.842C105.926 94.9011 106.086 88.6971 110.843 84.7054C115.577 80.7329 121.714 81.6532 125.86 86.5942C130.006 91.5352 129.866 97.7621 125.132 101.735ZM123.898 100.264C127.943 96.8698 127.373 91.9436 124.114 88.0597C120.855 84.1759 116.122 82.7823 112.077 86.1762C108.009 89.5894 108.56 94.4926 111.819 98.3765C115.078 102.26 119.83 103.677 123.898 100.264Z" fill="white"/>
<path d="M195.787 66.363L193.656 66.868L188.709 45.9962L190.84 45.4912L195.787 66.363Z" fill="white"/>
<path d="M235.941 47.66H234.411L234.171 40.55H236.181L235.941 47.66Z" fill="white"/>
<path d="M266.757 64.9685L264.626 64.4634L269.572 43.5916L272.521 44.2904L275.287 63.9688L275.345 63.9826L286.678 47.6459L289.627 48.3446L284.68 69.2164L282.549 68.7114L286.783 50.8463L286.725 50.8324L275.602 67.0648L273.675 66.6082L271.049 47.1172L270.991 47.1034L266.757 64.9685Z" fill="white"/>
<path d="M344.621 102.848C340.669 99.5312 339.535 95.0947 342.41 91.2019L344.157 92.6674C342.246 95.4112 342.362 98.4461 345.787 101.319C348.82 103.865 351.069 103.285 352.592 101.469C354.66 99.0524 353.306 97.2118 350.564 93.6187C348.396 90.742 346.493 87.7356 349.019 84.7251C351.218 82.1052 354.659 82.2513 358.037 85.086C361.599 88.075 362.328 91.7803 359.881 95.2098L358.135 93.7443C359.768 91.2377 359.584 88.8902 356.803 86.5568C354.39 84.5321 352.251 84.4211 350.824 86.1217C348.973 88.3279 350.54 90.4266 352.51 92.98C355.271 96.5501 357.174 99.5565 354.378 102.889C352.141 105.555 348.528 106.126 344.621 102.848Z" fill="white"/>
<path d="M371.865 132.017C368.157 127.035 369.456 120.944 374.63 117.092C379.804 113.241 385.988 113.761 389.696 118.742C393.387 123.699 392.111 129.772 386.938 133.624C381.764 137.476 375.556 136.974 371.865 132.017ZM373.405 130.87C376.558 135.105 381.509 134.823 385.576 131.795C389.643 128.768 391.309 124.123 388.156 119.888C384.985 115.629 380.058 115.893 375.992 118.921C371.925 121.949 370.234 126.611 373.405 130.87Z" fill="white"/>
<path d="M389.87 161.721L389.002 159.711L408.698 151.215L414.378 164.382L412.615 165.142L407.802 153.986L400.833 156.992L404.802 166.193L403.039 166.953L399.07 157.753L389.87 161.721Z" fill="white"/>
<path d="M403.07 204.61L402.689 202.454L423.814 198.729L424.194 200.886L403.07 204.61Z" fill="white"/>
<path d="M405.542 237.196L405.673 234.95L426.621 244.194L426.478 246.65L404.595 253.459L404.731 251.123L410.786 249.312L411.346 239.698L405.542 237.196ZM424.485 245.271L413.251 240.53L412.773 248.736L424.481 245.331L424.485 245.271Z" fill="white"/>
<defs>
<linearGradient id="paint0_linear_727_822" x1="234" y1="81" x2="234" y2="389" gradientUnits="userSpaceOnUse">
<stop stop-color="#7534FF"/>
<stop offset="1" stop-color="#ECB079" stop-opacity="0"/>
</linearGradient>
</defs>
</svg>
