<svg width="202" height="72" viewBox="0 0 202 72" fill="none" xmlns="http://www.w3.org/2000/svg">
<path d="M1.81367 30.7178C1.80443 30.6092 1.79518 30.5006 1.78594 30.392C3.26925 30.392 4.7387 29.298 5.37638 28.4019C4.89581 20.5502 4.59083 12.6636 4.46144 4.74206C3.17683 4.43172 1.8876 4.12137 0.59375 3.81103C0.59375 3.72568 0.59375 3.64422 0.59375 3.56663C2.88109 3.27568 7.26171 2.6356 8.6757 1.55328C8.77274 1.47181 20.1679 1.50672 26.3091 1.59983C29.137 1.69293 32.3948 1.66966 33.6979 2.18172C33.7256 2.27483 33.7579 2.36793 33.7949 2.46103C33.7949 2.46103 31.563 6.23171 29.65 7.54679C29.5483 7.52352 29.442 7.49636 29.3311 7.46533C30.6065 3.90413 19.1143 2.36793 11.7116 1.92569C11.4067 6.0843 11.2172 10.2468 11.1433 14.4131C13.1534 14.5644 15.1496 14.6459 16.8408 14.5994C19.7936 14.5295 22.1364 14.1571 23.1206 13.4007C23.2038 13.3192 23.4949 13.5636 23.6613 13.517C24.0633 14.355 23.8276 18.2071 22.3305 17.8347C18.6245 16.8726 14.8954 15.9106 11.1433 14.9485C11.2449 19.945 11.3882 24.9066 11.573 29.8334C16.7161 29.2864 28.0973 26.889 26.9883 23.1765C27.09 23.1222 27.1916 23.0679 27.2933 23.0136C28.6103 24.9338 29.4282 28.6347 29.4282 28.6347C29.4004 28.7278 29.3727 28.8209 29.345 28.914C28.2498 29.3795 12.8761 30.1709 11.1017 30.2174C7.98719 30.3803 4.89119 30.5472 1.81367 30.7178Z" fill="#0066FF"/>
<path d="M48.4616 9.97911C48.0827 11.6317 47.7223 13.2843 47.3804 14.9369C48.6141 12.4114 51.0956 9.62997 55.9752 9.57178C61.5619 9.51359 63.7799 11.9808 63.5443 14.8205C64.9998 12.3183 67.7585 9.44377 72.6798 9.38558C78.918 9.31575 80.5538 12.4463 79.2507 15.7631C78.1232 19.0761 77.0927 22.389 76.1593 25.7019C76.224 26.6019 76.2933 27.5058 76.3672 28.4135C76.1917 28.4756 76.0114 28.5416 75.8266 28.6114C75.8266 28.6114 71.1965 28.2157 64.7087 28.3088C64.7272 28.1924 64.7503 28.076 64.778 27.9597C64.778 27.9597 69.5052 28.1924 69.9488 26.0278C70.7898 22.6373 71.7232 19.2429 72.7491 15.8446C72.7491 15.8446 75.0226 10.4214 70.6142 10.4679C67.0792 10.5145 64.3067 13.8313 63.0591 16.8804C62.3197 19.9062 61.6451 22.9243 61.0351 25.9347C61.1645 26.8347 61.2985 27.7347 61.4371 28.6347C61.28 28.7045 61.1275 28.7743 60.9797 28.8441C60.9797 28.8441 55.8643 28.4601 49.2657 28.5765C49.2842 28.4601 49.298 28.3437 49.3073 28.2273C49.3073 28.2273 54.2701 28.4484 54.7969 26.2722C55.3791 22.8739 56.0399 19.4718 56.7793 16.0657C56.7793 16.0657 58.4428 10.6192 54.0899 10.6657C50.2638 10.7123 47.6992 14.5295 46.8674 17.7299C46.4238 20.5618 46.0264 23.3898 45.6752 26.214C45.8693 27.114 46.0634 28.014 46.2575 28.914C46.1096 28.9838 45.9617 29.0536 45.8139 29.1234C45.8139 29.1234 43.2354 28.7045 36.6229 28.8674C36.6229 28.751 36.6275 28.6347 36.6368 28.5183C36.6368 28.5183 39.0211 28.7627 39.4093 26.5864C39.8806 22.0321 40.4582 17.4623 41.1421 12.8769C39.8853 12.5821 38.6237 12.2834 37.3576 11.9808C37.3761 11.8877 37.39 11.7946 37.3992 11.7015C41.1976 11.236 46.3684 10.0489 47.1586 9.75799C48.1012 9.46704 48.4616 9.97911 48.4616 9.97911Z" fill="#0066FF"/>
<path d="M107.142 24.6661C107.207 24.767 107.272 24.8679 107.337 24.9687C104.328 26.6446 102.679 28.0877 102.679 28.0877C102.512 28.1187 102.351 28.1497 102.193 28.1808C100.585 27.723 98.9681 27.2653 97.3415 26.8075C97.6372 25.9308 97.9422 25.0579 98.2564 24.189C96.5097 26.5049 93.8204 28.3204 89.6338 28.3786C84.6433 28.4484 80.831 26.3071 81.9955 22.3153C83.7283 17.3459 90.5211 14.9834 96.0384 14.9136C98.0901 14.8787 100.072 15.4722 100.849 16.3218C100.142 14.3782 96.9949 12.7489 92.2955 12.8071C90.5904 12.5976 89.1625 11.0032 89.1625 11.0032C89.181 10.9179 89.1995 10.8287 89.218 10.7356C90.2438 10.2119 90.9231 9.15282 100.391 9.03644C110.844 8.89679 108.764 14.5179 108.764 14.5179C106.925 17.9239 105.248 21.3416 103.732 24.7709C103.386 25.6786 102.831 27.0635 103.289 27.0519C103.413 27.0519 104.217 26.6097 105.035 26.1209C106.117 25.4691 107.142 24.6661 107.142 24.6661ZM101.376 17.0899C101.791 16.2675 102.221 15.4412 102.665 14.611C102.859 14.2619 105.451 9.3623 100.239 9.43213C99.9338 9.43213 94.9848 11.3291 93.4461 12.2834C98.2703 12.6907 101.376 14.6343 101.376 17.0899ZM98.9219 22.4898C99.5411 21.0312 100.188 19.5726 100.863 18.114C100.974 16.3567 99.31 15.4489 97.2861 15.4722C93.4184 15.5304 89.4952 18.4049 88.1644 21.873C87.1524 24.9105 88.3307 27.692 91.7964 27.6338C95.0957 27.5872 97.6465 24.5963 98.9219 22.4898Z" fill="#0066FF"/>
<path d="M126.204 6.7205C124.415 6.74378 123.861 5.73128 124.956 4.43947C126.065 3.15931 128.519 2.10026 130.404 2.06534C132.276 2.04207 132.719 3.05456 131.499 4.3231C130.293 5.60326 127.95 6.67395 126.204 6.7205ZM117.137 24.9222C116.99 25.8454 116.851 26.7726 116.722 27.7036C116.583 27.7735 116.44 27.8394 116.292 27.9015C116.292 27.9015 114.226 27.4825 108.626 27.5872C108.672 27.4709 108.718 27.3545 108.764 27.2381C108.764 27.2381 110.885 27.5523 111.883 25.0036C114.074 20.558 116.592 16.1317 119.439 11.7248C118.487 11.43 117.53 11.139 116.569 10.852C115.502 10.8752 114.614 10.7356 113.88 10.4795C113.944 10.4097 114.014 10.3438 114.088 10.2817C114.822 10.5377 115.737 10.6308 116.832 10.5726C120.409 10.1188 123.722 9.0248 124.499 8.66403C124.998 8.45455 127.354 8.86187 127.354 8.86187C123.426 14.1843 120.021 19.5377 117.137 24.9222Z" fill="#0066FF"/>
<path d="M129.545 24.9687C129.369 25.7834 129.203 26.598 129.046 27.4127C128.916 27.467 128.782 27.5252 128.643 27.5872C128.643 27.5872 126.897 27.1566 121.698 27.2963C121.744 27.1954 121.791 27.0907 121.837 26.9821C121.837 26.9821 123.792 27.2497 124.887 24.6778C129.286 17.4157 134.785 10.2274 141.383 3.11275C140.635 2.83344 139.868 2.55413 139.082 2.27483C139.165 2.19724 139.248 2.11965 139.332 2.04207C143.047 1.57655 148.218 0.459314 149.382 0.0519876C149.937 -0.145857 149.978 0.284745 149.978 0.284745C149.34 0.789054 148.707 1.29724 148.079 1.80931C140.039 9.40885 133.953 17.1131 129.545 24.9687Z" fill="#0066FF"/>
<path d="M161.096 7.04636C159.839 8.71446 158.619 10.3864 157.436 12.0623C159.585 9.46704 162.552 6.59248 164.77 6.32481C167.21 6.01059 166.835 8.44291 165.324 11.3873C167.196 8.7455 169.83 5.66145 171.84 5.38214C174.335 5.00973 173.711 8.21015 171.951 11.7713C170.398 15.3481 168.97 18.9287 167.667 22.5131C167.51 23.4829 167.357 24.4567 167.21 25.4342C167.108 25.5118 167.006 25.5894 166.905 25.667C166.905 25.667 164.576 25.3411 161.11 25.5855C161.147 25.4536 161.188 25.3256 161.235 25.2015C161.235 25.2015 163.688 25.3528 164.451 23.0252C165.837 19.3787 167.371 15.7399 169.053 12.1088C169.053 12.1088 172.297 6.34809 170.481 6.60412C168.998 6.80197 166.142 10.3282 164.16 13.5519C162.57 16.733 161.11 19.9218 159.779 23.1183C159.585 24.0804 159.405 25.0385 159.238 25.9929C159.137 26.0704 159.035 26.148 158.933 26.2256C158.933 26.2256 156.175 25.8998 152.335 26.1325C152.381 26.0084 152.427 25.8804 152.473 25.7485C152.473 25.7485 155.274 25.9114 156.258 23.6071C157.838 20.0304 159.594 16.4653 161.526 12.9119C161.526 12.9119 165.241 7.27912 163.259 7.51188C161.456 7.70972 157.838 11.6433 155.593 14.9136C153.938 17.8308 152.423 20.7558 151.046 23.6886C150.824 24.6351 150.62 25.5778 150.436 26.5166C150.325 26.5941 150.214 26.6679 150.103 26.7377C150.103 26.7377 148.675 26.3304 144.475 26.5398C144.53 26.4157 144.581 26.2916 144.627 26.1674C144.627 26.1674 146.041 26.4235 147.109 24.1541C149.53 19.4756 152.321 14.8205 155.482 10.1886C155.029 9.9248 154.571 9.66489 154.109 9.40885C154.183 9.31575 154.257 9.22265 154.331 9.12954C156.66 8.55929 160.07 7.18602 160.639 6.87179C161.29 6.54593 161.096 7.04636 161.096 7.04636Z" fill="#0066FF"/>
<path d="M181.849 8.72222C183.983 9.16446 184.677 12.2019 183.29 16.6942C182.029 21.4192 179.256 24.6545 176.497 24.8873C172.477 25.2015 170.744 21.2911 173.06 14.8903C175.888 8.46618 180.254 4.04378 183.748 3.47353C184.787 3.29896 186.784 4.8468 185.786 7.4886C185.314 8.10541 184.579 8.87351 184.205 8.9317C183.969 8.96661 183.914 8.75713 183.928 8.43127C183.235 8.52437 182.542 8.62136 181.849 8.72222ZM183.623 3.81103C182.264 4.04378 180.448 6.16188 178.799 8.74549C180.545 8.49722 182.264 8.25282 183.956 8.01231C184.205 6.44119 185.231 3.54335 183.623 3.81103ZM178.521 9.18773C177.26 11.3175 176.137 13.6683 175.458 15.4489C173.794 20.3834 174.099 24.6429 176.816 24.4217C179.256 24.2239 181.959 20.942 183.082 16.7175C184.482 12.1787 183.678 8.46618 180.629 8.89679C179.935 8.99765 179.233 9.09463 178.521 9.18773Z" fill="#0066FF"/>
<path d="M198.816 19.2662C198.826 19.3903 198.83 19.5144 198.83 19.6386C197.597 21.6286 196.848 23.3511 196.848 23.3511C196.793 23.3821 196.737 23.4131 196.682 23.4442C196.219 22.8855 195.748 22.3308 195.268 21.7799C195.489 20.748 195.716 19.7162 195.947 18.6843C195.018 21.4308 193.867 23.5722 192.384 23.6536C190.568 23.7817 189.431 21.3377 190.499 16.7175C192.079 10.9451 194.921 8.01231 196.806 7.75627C197.5 7.67481 198.054 8.31489 198.151 9.30411C198.29 7.02309 197.569 5.20757 195.988 5.44033C195.462 5.25413 195.365 3.4968 195.365 3.4968C195.392 3.38818 195.42 3.27956 195.448 3.17094C195.905 2.5425 196.404 1.29724 199.482 0.773537C202.878 0.226556 201.145 6.98817 201.145 6.98817C199.916 11.1157 198.766 15.2433 197.694 19.3709C197.43 20.4649 197.042 22.1174 197.195 22.1174C197.236 22.1058 197.569 21.5821 197.902 21.0002C198.359 20.2321 198.816 19.2662 198.816 19.2662ZM198.193 10.2119C198.488 9.21877 198.784 8.22955 199.08 7.24421C199.218 6.8136 201.048 0.959743 199.343 1.23905C199.246 1.25069 197.208 3.63646 196.488 4.80025C197.999 5.10283 198.65 7.29076 198.193 10.2119ZM196.432 16.6593C196.885 14.9213 197.352 13.1795 197.832 11.4338C198.193 9.33903 197.804 8.30325 197.111 8.39636C195.794 8.55929 193.881 12.0157 192.8 16.0774C191.954 19.6386 191.996 22.8623 193.244 22.7808C194.394 22.711 195.67 19.173 196.432 16.6593Z" fill="#0066FF"/>
<path d="M6.47153 48.5471C6.45767 52.4691 23.1899 51.3751 22.8988 57.8807C22.6909 60.4992 19.3777 62.594 14.2208 62.6406C9.59064 62.7104 4.3644 61.1742 2.8811 59.5216C2.89958 59.4285 2.92268 59.3354 2.95041 59.2423C2.95041 59.2423 5.09913 57.9505 6.76265 57.9738C6.76265 57.9738 11.1987 61.9074 11.476 61.9772C13.3752 62.2216 15.0664 62.3496 16.3279 62.1518C19.2114 61.7328 20.0986 60.6738 20.2788 59.766C21.0967 55.3902 3.87921 57.0195 3.96239 50.5255C3.96239 47.7557 6.97059 45.2885 13.2365 44.9277C17.5062 44.7299 20.9026 46.1381 21.5264 46.5221C21.5264 46.623 21.531 46.7238 21.5403 46.8247C21.5403 46.8247 19.6134 48.5704 17.9637 48.8148C17.9637 48.8148 13.0425 45.3118 12.7652 45.335C9.75699 45.5678 6.44381 46.429 6.47153 48.5471Z" fill="#0066FF"/>
<path d="M53.6879 59.8009C53.9374 62.2449 56.4466 61.9656 56.4466 61.9656C56.4558 62.0665 56.465 62.1673 56.4743 62.2682C50.0559 62.2216 47.5467 62.6639 47.5467 62.6639C47.3988 62.6096 47.251 62.5591 47.1031 62.5126C47.2879 61.6358 47.4728 60.763 47.6576 59.894C47.5744 58.8156 47.4959 57.741 47.4219 56.6703C46.7843 58.6837 45.4673 62.3846 40.7124 62.3613C34.2524 62.3496 30.9531 58.9979 30.7728 56.4027C30.6897 53.4156 30.625 50.4169 30.5788 47.4066C29.3681 47.1118 28.1574 46.8208 26.9467 46.5337C26.9467 46.4406 26.9467 46.3514 26.9467 46.2661C28.8182 46.0217 33.9058 45.207 35.3753 44.2527C35.7218 44.0549 36.5674 44.4971 36.5674 44.4971C36.6044 48.4773 36.6876 52.438 36.817 56.3794C36.8447 57.2406 37.0526 61.8027 40.6708 61.8027C44.6355 61.8143 47.1586 57.9622 47.311 54.8432C47.2186 52.2673 47.1493 49.6837 47.1031 47.0924C45.8924 46.782 44.6817 46.4678 43.4711 46.1497C43.4711 46.0643 43.4711 45.9751 43.4711 45.882C46.8952 45.4514 51.5669 44.2993 52.1353 43.9501C52.4818 43.7523 53.1056 44.2062 53.1056 44.2062C53.1611 49.4199 53.3552 54.6182 53.6879 59.8009Z" fill="#0066FF"/>
<path d="M81.6073 59.1958C92.545 59.2889 95.0819 71.6367 82.8134 71.369C79.3477 71.2992 75.5078 69.0531 72.2639 66.5276C71.2381 68.8552 70.0736 71.1013 66.1227 71.0199C56.4604 70.8337 55.2405 60.9531 65.4019 61.0346C68.6596 61.0578 71.1549 62.0121 73.0957 63.3272C73.9413 61.6979 74.8285 60.2897 76.9495 58.8117C75.7018 59.1143 74.3572 59.3005 72.9154 59.2889C66.8436 59.254 60.744 56.1699 60.4667 51.5962C60.3697 46.7549 66.192 43.9385 72.1807 43.8919C73.4006 43.8803 74.5512 43.9967 75.6187 44.2178C77.2683 43.2635 82.7995 41.1687 84.7958 41.1454C85.378 41.1454 85.6414 41.2618 85.9602 41.3316C85.9972 41.4247 86.0342 41.5178 86.0711 41.6109C86.0711 41.6109 85.4889 43.6708 84.1997 44.4389C84.1997 44.4389 77.4485 43.8105 77.1713 43.8919C76.8386 44.0549 76.5613 44.2178 76.2841 44.3691C80.1379 45.4049 83.7006 47.7208 83.8254 51.5613C84.0888 54.9014 81.4687 57.1475 78.516 58.2764C75.4523 60.3363 74.4958 61.6979 73.5531 63.6531C77.7812 66.5742 80.027 70.9151 82.7164 70.9733C88.2753 71.0897 83.9501 59.5333 81.5242 59.5216C80.2349 59.51 79.6666 62.7337 79.5834 66.2134C79.4448 66.2057 79.3062 66.2018 79.1675 66.2018C78.7516 64.0139 78.3681 61.8298 78.0169 59.6496C78.5992 59.4169 80.0547 59.1841 81.6073 59.1958ZM72.1807 58.9397C76.0623 59.2772 78.2387 56.5307 78.3358 52.085C78.6546 47.6277 76.8247 44.4506 72.9847 44.1945C69.1864 43.9501 66.7604 46.7432 66.3584 51.1191C66.1366 55.5182 68.2299 58.6371 72.1807 58.9397ZM68.2992 69.7397C70.434 69.7746 71.2935 67.3772 71.848 66.1669C69.8241 64.619 67.814 61.4419 65.9286 61.4186C62.0887 61.3953 64.2928 69.6699 68.2992 69.7397Z" fill="#0066FF"/>
<path d="M109.624 59.4169C119.397 59.4634 123.57 72.2069 112.48 71.9974C109.25 71.9276 105.285 69.6233 101.875 67.0048C101.237 69.4255 100.474 71.7531 96.69 71.6716C87.3465 71.4621 85.1146 61.2091 94.7769 61.3139C97.8544 61.3488 100.28 62.338 102.235 63.688C102.831 62.0005 103.524 60.5458 105.326 59.0212C104.204 59.3354 102.984 59.5333 101.653 59.5216C95.983 59.4751 90.0081 56.2747 89.5507 51.5613C89.412 46.5919 94.8878 43.729 100.447 43.6825C101.57 43.6708 102.609 43.7872 103.594 44.02C105.118 43.0424 110.192 40.8894 111.981 40.8661C112.507 40.8661 112.729 40.9825 113.02 41.0639C113.048 41.157 113.076 41.2501 113.103 41.3432C113.103 41.3432 112.535 43.4497 111.371 44.2294C111.371 44.2294 105.257 43.601 105.021 43.6825C104.703 43.8454 104.453 44.0083 104.19 44.1712C107.683 45.2419 110.913 47.6044 111.121 51.5497C111.523 54.9712 109.319 57.2872 106.713 58.4626C104.093 60.5923 103.344 62.0005 102.706 64.0255C107.032 67.0513 109.818 71.5319 112.313 71.5901C117.401 71.6832 111.773 59.7544 109.568 59.7427C108.404 59.7311 108.238 63.0712 108.626 66.6673C108.496 66.6595 108.372 66.6557 108.251 66.6557C107.568 64.3979 106.948 62.1402 106.394 59.8824C106.893 59.638 108.21 59.4052 109.624 59.4169ZM100.946 59.1492C104.55 59.4984 106.325 56.6703 106.158 52.085C106.338 47.5113 104.675 44.2527 101.181 43.9967C97.6742 43.7523 95.3869 46.6036 95.068 51.0842C95.0542 55.6113 97.2306 58.8466 100.946 59.1492ZM98.5753 70.3332C100.613 70.3798 101.084 67.8893 101.431 66.6324C99.3377 65.0263 97.092 61.7328 95.3314 61.7212C91.6855 61.6863 94.7492 70.2634 98.5753 70.3332Z" fill="#0066FF"/>
<path d="M127.604 48.2329C132.04 48.9195 135.547 51.9686 136.157 56.1932C137.127 60.6389 134.563 63.5483 129.974 63.5367C123.265 63.4902 117.207 59.4984 116.084 53.3768C115.668 47.2437 120.326 43.3217 127.022 43.2169C129.004 43.182 134.202 44.9859 134.244 47.4764C133.8 48.0234 132.955 48.6984 132.289 48.71C131.874 48.7217 131.61 48.5122 131.388 48.1863C130.131 48.2018 128.87 48.2174 127.604 48.2329ZM127.063 43.5428C124.457 43.5894 122.683 45.498 121.698 47.8837C124.887 47.8527 128.029 47.8178 131.125 47.779C130.376 46.2544 130.085 43.4962 127.063 43.5428ZM121.546 48.2911C120.922 50.2695 120.783 52.4923 121.005 54.1798C121.906 58.8932 125.677 63.0945 130.224 63.1177C134.272 63.1294 136.698 60.185 135.811 56.1932C135.187 51.9221 130.917 48.1863 125.386 48.2561C124.11 48.2717 122.83 48.2833 121.546 48.2911Z" fill="#0066FF"/>
<path d="M141.48 46.4755C141.688 51.0492 152.612 50.2928 153.264 57.8341C153.721 60.9065 152.293 63.3505 149.146 63.3854C146.208 63.397 142.173 61.4302 140.593 59.3587C140.584 59.2501 140.57 59.1376 140.552 59.0212C140.552 59.0212 141.716 57.5315 142.867 57.613C142.867 57.613 146.97 62.4544 147.178 62.5358C148.467 62.8733 149.576 63.0363 150.297 62.8151C151.933 62.338 152.196 61.0927 152.085 60.0221C151.739 54.913 140.635 56.3678 139.761 48.6402C139.72 45.4165 141.979 42.7863 146.263 42.67C149.063 42.5885 151.129 44.2527 151.517 44.7066C151.508 44.823 151.503 44.9355 151.503 45.0441C151.503 45.0441 150.269 46.9876 149.216 47.2204C149.216 47.2204 146.097 43.0889 145.916 43.1006C143.879 43.2286 141.536 44.0432 141.48 46.4755Z" fill="#0066FF"/>
<path d="M165.005 56.0768C165.089 56.0768 165.167 56.0768 165.241 56.0768C166.53 59.4634 166.239 63.3272 163.397 63.3621C160.971 63.397 158.407 61.0578 157.547 56.263C157.113 51.8018 156.896 47.3445 156.896 42.8911C156.018 42.9144 155.13 42.9415 154.234 42.9725C154.243 42.8329 154.248 42.6932 154.248 42.5536C154.294 42.5536 154.34 42.5497 154.387 42.5419C159.419 42.1113 158.809 35.8036 158.809 35.8036C159.627 34.4187 161.456 34.023 161.456 34.023C161.53 34.0618 161.6 34.1006 161.664 34.1394C161.831 34.7678 161.013 40.7264 156.3 42.4837C158.823 42.3906 161.295 42.3014 163.716 42.2161C163.707 42.3557 163.698 42.4993 163.688 42.6467C162.57 42.6855 161.438 42.7243 160.292 42.7631C160.32 47.4725 160.574 52.182 161.054 56.8915C161.651 60.4527 162.15 63.0712 164.063 62.6988C165.948 62.2914 166.225 59.4285 165.005 56.0768Z" fill="#0066FF"/>
<path d="M170.218 39.7838C169.317 39.8187 168.693 38.6782 168.831 37.2467C168.984 35.8152 169.857 34.6049 170.731 34.5583C171.618 34.5118 172.158 35.6523 172.006 37.0954C171.881 38.5385 171.105 39.7488 170.218 39.7838ZM172.81 59.9639C173.124 60.9725 173.443 61.985 173.767 63.0014C173.702 63.0712 173.642 63.1449 173.586 63.2225C173.586 63.2225 172.186 62.7104 168.942 62.7686C168.924 62.6367 168.901 62.5048 168.873 62.3729C168.873 62.3729 170.259 62.7453 169.76 59.9755C169.16 55.1109 168.758 50.2385 168.554 45.3583C167.926 45.0324 167.302 44.7105 166.683 44.3924C166.114 44.404 165.601 44.2527 165.116 43.9734C165.125 43.8958 165.139 43.8221 165.158 43.7523C165.643 44.0316 166.156 44.148 166.724 44.0781C168.457 43.5894 169.802 42.3674 170.065 41.96C170.245 41.7389 171.646 42.2044 171.646 42.2044C171.747 48.132 172.135 54.0518 172.81 59.9639Z" fill="#0066FF"/>
<path d="M181.363 41.5178C184.649 41.4014 187.144 45.7191 187.699 52.2479C188.614 58.6837 186.825 63.0479 183.318 63.0828C179.658 63.1294 176.137 58.8583 175.402 52.4923C175.07 46.0566 177.842 41.6458 181.363 41.5178ZM185.245 52.9462C184.981 46.7432 183.734 42.3208 181.751 41.9484C179.741 41.6225 178.161 45.5562 178.203 51.7242C178.619 57.904 180.601 62.2449 182.805 62.6173C185.009 62.9781 185.841 59.1143 185.245 52.9462Z" fill="#0066FF"/>
<path d="M200.3 59.8591C200.688 60.8677 201.081 61.8764 201.478 62.885C201.441 62.9548 201.404 63.0246 201.367 63.0945C201.367 63.0945 198.969 62.5475 196.474 62.5358C196.437 62.4039 196.404 62.272 196.377 62.1401C196.377 62.1401 198.941 62.8501 198.137 60.0919C197.259 56.3134 196.469 52.5156 195.767 48.6984C195.767 48.6984 195.171 42.5536 193.992 42.5303C192.855 42.5187 192.232 47.104 192.606 50.8048C192.514 50.3859 192.426 49.9708 192.343 49.5596C192.259 46.6036 192.578 41.3083 194.394 41.32C195.975 41.3665 197.056 45.0092 197.638 48.7566C198.442 52.4729 199.329 56.1738 200.3 59.8591ZM191.83 41.6691C192.347 47.7596 193.137 53.8074 194.2 59.8126C194.533 60.8212 194.87 61.8298 195.212 62.8384C195.175 62.9083 195.138 62.982 195.101 63.0595C195.101 63.0595 193.937 62.5358 191.261 62.5358C191.234 62.4039 191.206 62.272 191.178 62.1401C191.178 62.1401 192.204 62.4893 191.83 60.0802C190.952 54.7966 190.272 49.4898 189.792 44.1596C190.43 43.2363 191.058 42.3169 191.677 41.4014C191.76 41.4829 191.83 41.6691 191.83 41.6691ZM191.857 42.3441C191.275 43.2441 190.688 44.148 190.097 45.0557C189.552 44.629 189.002 44.2023 188.447 43.7756C188.447 43.6669 188.443 43.5622 188.433 43.4613C189.667 43.0424 191.247 41.7622 191.441 41.3549C191.552 41.1221 191.76 41.5294 191.76 41.5294C191.788 41.801 191.82 42.0725 191.857 42.3441Z" fill="#0066FF"/>
</svg>
