<svg width="128" height="65" viewBox="0 0 128 65" fill="none" xmlns="http://www.w3.org/2000/svg">
<path d="M0.25 59.6904C0.156667 59.577 0.0733333 59.467 0 59.3604C1.73 59.2304 2.72 57.9704 3.09 56.9604C3.09 47.9204 5.35 38.2304 9.87 27.8904C9.31 27.7237 8.76333 27.557 8.23 27.3904C8.29 27.2704 8.35333 27.1504 8.42 27.0304C9.88 26.1804 12.51 24.3804 13.69 22.5504C13.8367 22.4837 13.99 22.4104 14.15 22.3304C14.4 22.1604 18.89 20.1204 21.46 19.0404C22.62 18.6304 23.96 17.9404 24.5 18.4604C24.5 18.5937 24.5 18.737 24.5 18.8904C24.5 18.8904 23.74 23.9504 22.84 25.1004C20.1133 24.2204 17.4733 23.397 14.92 22.6304C12.96 28.817 11.0867 34.8004 9.3 40.5804C10.38 40.5204 11.28 40.3704 12.15 40.1704C14.35 39.6404 15.93 38.6804 17.8 37.5104C17.9 37.4804 18.14 37.6804 18.24 37.6604C18.45 38.7404 18.1 43.8104 17.05 43.5004C14.4233 42.7404 11.77 42.0104 9.09 41.3104C8.39667 47.2704 8.75333 52.997 10.16 58.4904C7.00667 58.8637 3.70333 59.2637 0.25 59.6904Z" fill="#00FF0A"/>
<path d="M39.81 24.8204C40.87 33.9337 42.11 42.757 43.53 51.2904C43.78 52.3304 44.03 53.2704 44.2 53.2504C44.28 53.2404 44.55 52.5504 44.82 51.7404C45.12 50.7904 45.34 49.5404 45.34 49.5404C45.44 49.687 45.54 49.8337 45.64 49.9804C44.66 52.6004 44.41 54.7904 44.41 54.7904C44.31 54.8304 44.2167 54.877 44.13 54.9304C42.85 54.3237 41.57 53.727 40.29 53.1404C39.8433 50.7937 39.42 48.427 39.02 46.0404C39.06 49.2204 39.24 54.9304 36.41 55.2104C32.32 55.6404 29.3 51.0204 28.64 47.2304C28.2667 42.7504 28.0233 38.167 27.91 33.4804C27.19 33.1804 26.4733 32.8837 25.76 32.5904C25.7533 32.4637 25.7467 32.3304 25.74 32.1904C26.89 31.5304 29.81 29.4604 30.57 27.7004C30.78 27.3104 31.22 27.9004 31.22 27.9004C31.4933 34.307 31.9333 40.547 32.54 46.6204C32.73 47.9204 33.94 54.6404 36.18 54.3904C38.59 54.1304 39.16 48.0804 38.6 43.2004C38.0733 39.0737 37.6 34.887 37.18 30.6404C36.48 30.287 35.7867 29.937 35.1 29.5904C35.0933 29.4437 35.0833 29.297 35.07 29.1504C36.81 27.9004 39.07 25.2204 39.28 24.5204C39.41 24.1304 39.81 24.8204 39.81 24.8204Z" fill="#00FF0A"/>
<path d="M47.58 22.2504C49.0667 31.6637 50.6367 40.7737 52.29 49.5804C52.7433 51.007 53.2 52.427 53.66 53.8404C53.6133 53.9537 53.5633 54.0637 53.51 54.1704C53.51 54.1704 51.93 53.5504 48.36 53.8704C48.3267 53.6904 48.2967 53.5104 48.27 53.3304C48.27 53.3304 49.65 53.7004 49.05 50.3304C47.6633 42.7837 46.3767 35.0237 45.19 27.0504C45.9033 25.3504 46.6067 23.637 47.3 21.9104C47.44 22.0104 47.58 22.2504 47.58 22.2504ZM60.65 49.7404C59.61 49.967 58.5667 50.197 57.52 50.4304C56.28 44.4304 55.08 38.3137 53.92 32.0804C53.92 32.0804 52.71 23.7204 50.82 24.2504C48.62 24.9104 51.25 43.9104 52.28 49.4604C52.1067 49.2404 51.9333 49.0204 51.76 48.8004C50.97 42.3404 47.66 21.6204 51.1 20.4904C53.56 19.7404 55.83 25.3604 56.96 31.4504C58.1667 37.6637 59.3967 43.7604 60.65 49.7404ZM47.74 23.3204C47.0867 25.0004 46.42 26.6637 45.74 28.3104C44.9467 27.8637 44.1567 27.4204 43.37 26.9804C43.3433 26.8204 43.3233 26.6637 43.31 26.5104C44.88 25.2904 46.81 22.6504 46.97 21.9304C47.07 21.5204 47.45 22.0604 47.45 22.0604C47.55 22.487 47.6467 22.907 47.74 23.3204ZM56.7 46.6504C57.8867 47.057 59.0733 47.467 60.26 47.8804C60.6 49.4104 61.05 51.7104 61.32 51.6904C61.39 51.6804 61.6 50.9204 61.8 50.0504C62.03 49.0204 62.17 47.6404 62.17 47.6404C62.2767 47.807 62.38 47.977 62.48 48.1504C61.7 50.9904 61.59 53.4004 61.59 53.4004C61.5033 53.4404 61.42 53.487 61.34 53.5404C60.1333 52.8137 58.9333 52.097 57.74 51.3904C57.3867 49.8104 57.04 48.2304 56.7 46.6504Z" fill="#00FF0A"/>
<path d="M64.66 17.0504C65.4867 16.957 66.3233 16.8804 67.17 16.8204C66.7167 14.4404 66.2667 12.0404 65.82 9.62038C66.8 7.50038 67.8067 5.41371 68.84 3.36038C69.79 0.970379 72.43 -0.119623 74.08 0.0103773C74.52 0.0503773 74.86 0.150379 75.1 0.320379C75.16 0.487045 75.2167 0.650377 75.27 0.810377C75.27 0.810377 75.54 3.45038 75.05 4.96038C73.07 4.70038 69.72 4.27038 68.86 4.58038C68.36 5.64038 69.55 12.7204 70.26 16.5204C71.3533 16.4737 72.4533 16.437 73.56 16.4104C73.62 16.6837 73.6833 16.967 73.75 17.2604C72.6367 17.287 71.5233 17.3237 70.41 17.3704C72.7767 29.397 75.2133 41.067 77.72 52.3804C79.33 58.8204 78.12 65.4404 75.44 64.9004C75.44 64.9004 73.94 63.9804 70.9 63.4704C70.86 63.277 70.8167 63.0837 70.77 62.8904C70.77 62.8904 77.43 63.5204 76.59 60.0204C73.51 46.9537 70.5333 33.367 67.66 19.2604C66.7133 18.8004 65.77 18.347 64.83 17.9004C64.77 17.607 64.7133 17.3237 64.66 17.0504Z" fill="#00FF0A"/>
<path d="M90.93 49.9004C90.2967 47.027 89.6733 44.137 89.06 41.2304C89.8 47.0804 89.66 52.3604 87.57 52.3804C84.46 52.4204 80.34 45.5604 78.03 34.4004C76.07 23.8604 77.11 16.4904 80.9 16.6204C82.86 16.7304 84.74 21.0104 85.94 24.6204C85.6267 22.7604 85.3133 20.897 85 19.0304C85 19.0304 84.96 18.1204 85.24 18.5904C85.61 19.2104 88.01 22.4504 88.75 22.5004C90.1433 30.587 91.6167 38.577 93.17 46.4704C93.52 48.0904 94.03 50.5504 94.24 50.5504C94.3 50.5504 94.51 49.7804 94.65 48.8904C94.87 47.8404 94.95 46.4404 94.95 46.4404C95.0433 46.627 95.14 46.8104 95.24 46.9904C94.58 49.8604 94.54 52.3704 94.54 52.3704C94.4533 52.4104 94.3767 52.457 94.31 52.5104C93.1833 51.637 92.0567 50.767 90.93 49.9004ZM86.81 29.5604C86.62 29.9804 86.37 30.1904 85.93 28.9404C84.78 25.0804 82.79 17.6204 81.36 17.5504C79.14 17.3904 79.8 26.1604 81 33.5304C82.53 42.3304 85.09 51.2004 87.35 51.6004C89.33 51.9404 89.73 45.8604 88.42 37.9304C87.8733 35.1504 87.3367 32.3604 86.81 29.5604Z" fill="#00FF0A"/>
<path d="M107.96 43.6604C108.067 43.667 108.17 43.6737 108.27 43.6804C108.46 49.4204 107.15 52.8504 104.41 52.7304C100.87 52.6204 96.46 46.6204 94.28 35.2704C92.29 23.1304 95.25 16.8204 99.95 18.5804C102.99 19.6904 104.55 24.8504 104.83 25.9804C104.843 26.147 104.857 26.3104 104.87 26.4704C104.87 26.4704 103.95 29.4704 103.26 29.3904C103.05 29.3704 102.89 29.1604 102.72 28.5004C101.85 24.3004 101.22 20.0204 99.97 19.2104C96.81 17.2704 95.96 25.4504 97.08 34.3004C98.41 42.9104 101.12 51.1804 104.05 51.9604C106.48 52.6104 108.25 49.2004 107.96 43.6604Z" fill="#00FF0A"/>
<path d="M117.06 42.6404C117.107 42.647 117.157 42.6537 117.21 42.6604C118.8 47.9504 119.26 53.6804 116.95 53.4704C114.98 53.3104 112.55 49.5004 111.16 41.9404C110.12 34.807 109.25 27.6204 108.55 20.3804C107.81 20.2604 107.067 20.1437 106.32 20.0304C106.307 19.797 106.293 19.5637 106.28 19.3304C106.313 19.3304 106.347 19.3337 106.38 19.3404C110.59 19.6204 109.08 8.92038 109.08 8.92038C109.57 6.74038 111.25 6.53038 111.25 6.53038C111.323 6.62371 111.393 6.71038 111.46 6.79038C111.71 7.91038 111.77 17.7004 107.99 19.6004C110.117 19.9604 112.2 20.3437 114.24 20.7504C114.24 20.977 114.243 21.207 114.25 21.4404C113.323 21.247 112.387 21.0604 111.44 20.8804C112.1 28.4337 112.97 35.9137 114.05 43.3204C115.08 48.8704 115.9 52.9304 117.37 52.5404C118.84 52.1004 118.58 47.8604 117.06 42.6404Z" fill="#00FF0A"/>
<path d="M118.87 27.6504C119.45 34.9404 124.33 36.3504 126.51 47.3604C127.74 51.5104 127.93 54.8504 126.05 54.4404C124.29 54.1304 121.5 50.8104 120.19 47.5304C120.163 47.3637 120.137 47.197 120.11 47.0304C120.11 47.0304 120.53 44.9104 121.19 45.1704C121.19 45.1704 124.58 52.8504 124.71 52.9904C125.55 53.6304 126.23 54.0004 126.58 53.7804C127.36 53.3604 127.1 51.6604 126.69 50.1504C124.99 42.8504 119.69 42.9904 118.07 30.8004C117.77 25.5904 118.99 21.7104 121.42 22.5104C122.86 23.1204 123.66 26.4704 123.78 27.3104C123.773 27.5037 123.767 27.687 123.76 27.8604C123.76 27.8604 123.24 30.5804 122.82 30.6604C122.82 30.6604 121.33 23.1804 121.21 23.1304C120.1 22.8804 118.74 23.7004 118.87 27.6504Z" fill="#00FF0A"/>
</svg>
