<svg width="489" height="185" viewBox="0 0 489 185" fill="none" xmlns="http://www.w3.org/2000/svg">
<path d="M67.5133 7.42073C72.8801 8.74783 78.2076 10.0945 83.4959 11.4609C83.3701 12.3718 83.2483 13.2866 83.1305 14.2054C81.834 14.335 80.1013 15.2302 78.8402 17.1619C73.4262 61.5449 70.955 105.433 71.4264 148.827C71.4146 149.239 74.3141 161.442 74.5734 162.62C74.3849 163.013 74.2041 163.401 74.0313 163.786C73.1591 161.713 40.0507 170.795 38.7541 171.219C38.5656 170.638 38.377 170.049 38.1884 169.452C40.5928 169.098 63.4823 163.02 61.1721 149.239C59.7028 127.118 59.581 104.357 60.8068 80.9566C48.0459 82.5507 33.8352 85.1225 18.1748 88.6718C14.521 116.282 14.6742 141.602 18.6345 164.634C18.7052 165.058 25.7536 175.977 26.5786 176.979C26.3822 177.41 26.1779 177.846 25.9657 178.286C24.0681 176.59 3.11165 184.293 1.30831 185C0.860418 184.529 0.424315 184.054 0 183.575C3.61847 182.597 5.41002 178.628 2.94664 174.517C0.110008 125.697 8.65918 70.6461 28.5942 9.36425C28.4291 6.49019 27.0148 4.35821 25.8125 3.66325C26.2368 2.43824 26.6572 1.21716 27.0737 0C36.6286 1.32709 45.9164 2.85443 54.9371 4.58201C54.7485 5.43794 54.5599 6.30958 54.3713 7.19693C52.2497 6.78467 40.97 4.32287 38.4595 12.097C33.737 29.2628 28.9477 46.727 24.0917 64.4897C19.8839 80.8624 20.4968 85.1617 27.0619 83.5245C39.2413 81.3022 50.5368 79.6688 60.9482 78.6244C63.6591 57.3202 66.6765 36.2595 70.0003 15.4422C69.4934 13.0039 68.0319 11.0604 67.0418 10.3419C67.1911 9.36818 67.3483 8.39446 67.5133 7.42073Z" fill="white"/>
<path d="M102.178 98.5897C103.698 97.0113 105.195 96.2104 106.468 96.2339C111.383 96.3399 114.094 107.447 113.787 122.878C113.846 143.232 108.295 157.261 100.386 158.545C89.1063 160.594 78.7341 142.749 77.6379 111.264C79.0523 78.6362 89.2595 58.612 101.529 60.0137C105.171 60.4966 114.306 70.7796 113.445 79.6727C112.974 82.9473 111.784 87.7531 110.558 89.4493C109.862 90.4033 109.261 90.1913 108.625 89.3668C106.472 92.4058 104.323 95.4801 102.178 98.5897ZM101.494 61.651C91.5578 60.5437 86.4425 102.064 86.7136 119.438C93.7462 108.618 100.826 98.1892 107.953 88.1536C106.751 75.7268 107.187 62.3695 101.494 61.651ZM86.8432 121.735C88.5051 142.172 93.9741 157.673 100.822 156.507C107.87 155.388 113.269 141.182 113.139 122.913C113.387 108.814 110.605 98.4837 105.584 98.413C103.533 98.4012 101.129 100.015 98.3587 104.114C94.4927 109.862 90.6542 115.736 86.8432 121.735Z" fill="white"/>
<path d="M120.246 148.556C121.048 111.531 123.177 74.7452 126.635 38.1991C125.259 36.3459 123.88 34.477 122.498 32.5923C122.56 32.239 122.623 31.8777 122.686 31.5087C127.413 30.8962 133.813 27.8925 135.133 26.4555C135.698 25.7134 136.37 28.0928 136.37 28.0928C136.032 30.425 135.698 32.7651 135.368 35.113C131.278 70.9328 128.662 107.389 127.719 144.198C127.801 146.942 127.943 149.322 128.285 149.274C128.462 149.251 129.31 147.142 130.147 144.681C131.278 141.842 132.257 138.132 132.257 138.132C132.43 138.611 132.599 139.082 132.764 139.545C129.428 147.319 127.978 154.069 127.978 154.069C127.798 154.218 127.617 154.363 127.436 154.504C125.063 152.541 122.666 150.558 120.246 148.556Z" fill="white"/>
<path d="M135.757 146.813C137.29 111.68 139.891 76.9204 143.56 42.5337C142.209 40.7512 140.849 38.9529 139.482 37.139C139.545 36.8092 139.608 36.4715 139.67 36.126C144.362 35.6431 150.726 32.9339 152.046 31.5911C152.6 30.9079 153.26 33.1695 153.26 33.1695C152.915 35.3682 152.573 37.5709 152.235 39.7775C147.933 73.4888 144.868 107.836 143.136 142.749C143.148 145.364 143.218 147.637 143.548 147.602C143.725 147.578 144.621 145.564 145.493 143.232C146.683 140.546 147.733 137.024 147.733 137.024C147.882 137.48 148.035 137.927 148.192 138.367C144.727 145.741 143.124 152.16 143.124 152.16C142.935 152.31 142.751 152.447 142.57 152.573C140.315 150.68 138.044 148.76 135.757 146.813Z" fill="white"/>
<path d="M171.459 71.8162C181.442 73.7715 186.699 89.567 183.587 111.323C180.888 133.326 172.579 149.168 163.574 150.146C154.439 151.183 148.133 134.94 149.618 109.874C151.799 84.9026 161.334 69.8844 171.459 71.8162ZM175.879 113.266C179.356 91.9346 178.189 76.2451 172.39 73.5948C166.626 71.0623 160.438 84.5139 157.315 107.506C154.934 131.029 157.291 147.531 162.619 148.474C167.899 149.357 173.003 135.069 175.879 113.266Z" fill="white"/>
<path d="M192.521 117.73C191.893 117.715 191.268 117.695 190.647 117.672C193.507 92.0485 196.812 66.6217 200.56 41.3912C203.86 42.4906 207.16 43.5899 210.46 44.6893C203.946 68.4513 197.967 92.7984 192.521 117.73ZM189.952 129.474C192.05 129.427 193.287 133.267 192.663 138.179C192.05 143.114 189.799 147.225 187.771 147.437C185.744 147.637 184.436 143.762 185.072 138.65C185.638 133.585 187.854 129.521 189.952 129.474Z" fill="white"/>
<path d="M229.896 55.8204C234.847 57.3281 239.801 58.7847 244.759 60.1904C244.618 60.6772 244.476 61.168 244.335 61.6627C242.426 61.6627 240.74 62.4519 240.245 62.8053C240.237 62.8524 240.233 62.8956 240.233 62.9349C240.147 63.1626 240.064 63.3864 239.986 63.6063C233.244 86.7754 227.115 110.675 221.74 135.175C221.457 138.057 221.182 140.943 220.915 143.833C220.695 144.06 220.475 144.284 220.255 144.504C220.255 144.504 217.709 143.197 210.354 143.774C210.441 143.373 210.523 142.973 210.602 142.572C210.602 142.572 212.712 143.326 214.232 137.637C219.528 112.069 225.339 87.0228 231.664 62.499C231.794 62.1457 231.924 61.7923 232.03 61.4272C232.085 61.1916 232.136 60.9521 232.183 60.7086C232.053 60.0137 231.028 58.4118 229.413 57.387C229.57 56.8687 229.731 56.3465 229.896 55.8204Z" fill="white"/>
<path d="M253.033 61.6392C255.273 62.0397 256.051 65.1964 254.79 68.7419C252.385 75.9977 246.386 82.2759 242.225 85.6918C242.123 85.4326 242.025 85.1735 241.931 84.9144C244.453 82.1934 248.401 76.7516 249.061 74.8316C246.221 74.4311 245.549 70.6854 246.657 67.0575C247.871 63.3825 250.688 61.1562 253.033 61.6392Z" fill="white"/>
<path d="M266.175 137.001C265.625 139.561 265.075 142.117 264.525 144.669C264.313 144.834 264.101 144.999 263.889 145.164C263.889 145.164 261.473 143.526 254.247 142.843C254.342 142.513 254.436 142.184 254.53 141.854C254.53 141.854 256.888 142.949 258.997 136.93C262.172 127.413 265.437 117.856 268.792 108.26C268.792 108.26 274.638 92.8887 269.641 92.4058C265.339 91.9582 259.787 102.453 256.581 111.558C254.067 119.56 251.611 127.546 249.215 135.517C248.775 138.092 248.335 140.664 247.894 143.232C247.674 143.405 247.447 143.581 247.211 143.762C247.211 143.762 244.783 142.337 237.511 142.301C237.589 141.956 237.668 141.606 237.746 141.253C237.746 141.253 240.163 142.16 242.013 135.894C245.745 122.78 249.639 109.689 253.693 96.6226C252.531 95.539 251.36 94.4435 250.181 93.3363C250.244 93.0693 250.303 92.8023 250.358 92.5353C254.943 91.9346 261.579 89.4375 262.581 88.7425C263.865 88.0593 263.936 89.5906 263.936 89.5906C262.341 94.2472 260.765 98.9038 259.21 103.56C262.298 96.658 267.012 88.9899 272.599 89.5435C278.905 90.1206 279.6 97.5649 277.196 105.728C280.673 98.7075 285.835 90.7331 291.516 91.2043C298.624 91.7933 298.199 101.24 294.31 110.781C290.318 120.62 286.401 130.42 282.559 140.181C281.863 142.184 281.18 144.104 281.58 144.151C281.734 144.174 283.007 143.055 284.409 141.712C286.024 140.169 287.839 138.061 287.839 138.061C287.863 138.383 287.882 138.701 287.898 139.015C283.148 143.197 280.249 147.013 280.249 147.013C280.029 147.06 279.805 147.103 279.577 147.142C277.934 145.478 276.276 143.813 274.603 142.148C275.64 139.423 276.681 136.698 277.726 133.974C280.72 126.027 283.769 118.049 286.873 110.039C286.873 110.039 293.355 94.5495 288.428 94.1255C284.397 93.7721 278.799 102.971 275.204 111.558C272.132 120.071 269.122 128.551 266.175 137.001Z" fill="white"/>
<path d="M354.268 89.9086C355.392 84.7338 356.5 79.5471 357.592 74.3487C356.401 73.0294 354.61 72.1695 352.642 72.0518C347.927 71.7455 341.998 75.185 338.604 83.4538C329.693 104.656 353.537 108.142 341.904 130.84C332.97 148.438 323.01 152.773 315.879 151.713C310.575 150.912 303.704 144.787 305.92 133.373C306.1 133.106 306.277 132.847 306.45 132.595C307.864 131.312 311.212 128.826 312.214 128.944C312.461 128.979 312.626 129.003 312.85 129.156C312.072 134.92 311.283 140.699 310.481 146.495C311.118 148.532 314.217 150.229 315.962 150.488C320.806 151.194 327.89 149.722 333.441 138.579C343.707 118.06 321.171 113.938 329.634 92.7002C336.093 76.0213 345.216 70.3203 352.194 70.7679C358.523 71.1801 364.263 76.9165 362.024 85.8802C361.811 86.1551 361.603 86.4299 361.399 86.7048C359.301 88.4127 355.447 90.3798 354.268 89.9086Z" fill="white"/>
<path d="M382.014 98.2717C392.256 99.0255 393.352 111.629 382.827 129.721C372.101 147.649 358.205 158.827 349.388 157.555C340.537 156.259 339.877 143.562 348.87 126.211C357.993 108.661 371.759 97.4943 382.014 98.2717ZM374.152 130.805C384.701 113.761 388.06 101.264 382.52 99.5791C377.063 98.0361 366.962 108.331 357.203 125.092C347.573 141.877 344.403 154.257 349.07 156.094C353.714 157.932 363.697 147.79 374.152 130.805Z" fill="white"/>
<path d="M404.007 99.5909C406.223 99.7794 408.443 99.9678 410.667 100.156C412.78 96.4577 414.871 92.7591 416.937 89.0605C422.241 86.1865 427.545 83.3085 432.849 80.4266C438.318 76.9282 446.521 75.3263 450.706 75.5266C451.802 75.5854 452.58 75.7503 453.016 76.0213C452.984 76.2725 452.953 76.5199 452.921 76.7633C452.921 76.7633 450.458 80.9095 447.323 83.2771C442.337 82.8059 434.016 81.8754 431.387 82.2523C428.712 83.7482 422.441 94.5849 419.07 100.533C422.033 100.698 425.015 100.859 428.016 101.016C427.789 101.472 427.557 101.931 427.321 102.394C424.288 102.229 421.278 102.064 418.293 101.9C406.231 121.665 393.832 141.469 381.094 161.313C373.728 173.033 360.208 184.128 355.682 182.244C355.682 182.244 354.115 180.076 348.846 178.098C349.058 177.728 349.274 177.367 349.494 177.014C349.494 177.014 361.941 180.489 365.901 174.116C380.242 150.755 394.444 127.377 408.51 103.984C406.75 102.979 404.993 101.97 403.241 100.957C403.493 100.502 403.748 100.046 404.007 99.5909Z" fill="white"/>
<path d="M440.192 95.4447C437.611 95.3387 437.375 91.911 439.591 87.8355C441.748 83.7836 445.449 80.5444 447.971 80.6622C450.505 80.7799 450.918 84.1841 448.82 88.2242C446.675 92.288 442.797 95.5507 440.192 95.4447ZM401.897 149.157C410.431 136.412 418.693 123.718 426.685 111.075C425.624 109.992 424.559 108.912 423.49 107.836C421.994 107.754 420.791 107.177 420.025 106.234C420.206 106.03 420.383 105.826 420.556 105.622C421.322 106.564 422.465 107.012 424.021 106.965C429.537 105.952 435.194 102.748 436.632 101.652C437.481 101.052 440.734 102.701 440.734 102.701C430.221 119.513 419 136.475 407.072 153.586C405.056 156.413 402.004 160.653 402.628 160.724C402.817 160.735 404.726 159.404 406.801 157.814C409.405 155.977 412.305 153.468 412.305 153.468C412.242 153.837 412.179 154.198 412.116 154.551C404.75 159.557 399.906 164.022 399.906 164.022C399.654 164.085 399.407 164.147 399.163 164.21C397.89 162.365 396.609 160.523 395.321 158.686C397.505 155.513 399.697 152.337 401.897 149.157Z" fill="white"/>
<path d="M434.747 161.76C439.83 156.146 444.867 150.531 449.857 144.916C438.082 156.2 424.999 166.283 419.129 165.871C410.808 165.152 413.731 151.795 428.346 131.889C440.628 113.902 455.102 102.029 467.171 102.041C473.831 101.935 474.597 108.684 473.371 114.609C475.21 111.468 476.946 108.358 478.581 105.28C478.581 105.28 479.677 103.796 480.125 104.503C480.667 105.433 485.794 110.18 489 109.98C478.942 124.374 466.476 139.372 451.601 154.975C448.36 158.262 443.327 163.244 444.034 163.256C444.282 163.256 447.228 161.678 450.34 159.805C454.3 157.602 458.826 154.646 458.826 154.646C458.654 155.038 458.477 155.423 458.296 155.8C447.24 161.831 440.003 166.943 440.003 166.943C439.626 167.037 439.257 167.123 438.895 167.202C437.536 165.388 436.153 163.574 434.747 161.76ZM467.56 123.243C465.91 124.079 464.437 124.515 465.25 122.336C467.914 115.693 472.322 103.419 467.431 103.502C460.205 103.419 448.431 118.001 438.895 130.746C426.142 146.554 414.992 163.138 420.237 164.387C425.034 165.435 440.805 153.868 455.432 138.615C459.691 133.44 463.734 128.316 467.56 123.243Z" fill="white"/>
<path d="M472.499 149.369C476.577 149.11 474.868 153.185 468.857 158.238C462.763 163.433 455.078 167.744 451.837 167.779C448.702 167.779 450.399 163.68 455.668 158.709C460.854 153.868 468.385 149.604 472.499 149.369Z" fill="white"/>
</svg>
