<svg width="183" height="167" viewBox="0 0 183 167" fill="none" xmlns="http://www.w3.org/2000/svg">
<path d="M143.121 164.904C133.365 137.473 126.833 114.26 138.602 88.6127C145.409 73.7764 169.865 49.3491 179.921 77.6271C184.817 91.3934 165.52 94.5054 157.332 95.8618C141.33 98.5125 126.485 98.0246 111.642 87.9995C93.6335 75.8358 75.2573 44.7356 80.3462 21.9523C81.8182 15.3624 83.2496 7.29021 89.2219 4.26704C91.3557 3.18692 97.113 0.0179337 99.4935 2.36575C105.965 8.74817 108.563 19.7963 104.638 27.4296C97.8296 40.6726 76.4542 50.0255 62.6637 50.7038C49.4227 51.3551 41.0021 50.6613 30.0336 39.9487C23.0622 33.14 19.2098 25.3809 13.0778 18.2609C12.1959 17.237 2.09637 -0.489878 1.54253 7.52552" stroke="white" stroke-width="3" stroke-linecap="round" stroke-dasharray="10 10"/>
</svg>
