<svg width="502" height="595" viewBox="0 0 502 595" fill="none" xmlns="http://www.w3.org/2000/svg">
<path d="M222.053 1C222.053 88.487 216.437 160.785 148.368 221.55C108.993 256.701 1 301.236 1 211.048C1 167.142 67.4839 177.762 95.7368 182.166C150.949 190.774 198.757 207.103 235.503 250.432C280.088 303.004 303.925 409.56 260.942 468.94C248.509 486.116 234.49 507.529 211.526 510.075C203.322 510.984 180.89 514.16 175.854 505.115C162.164 480.529 166.501 446.633 188.135 428.973C225.667 398.335 306.156 393.377 351.877 405.343C395.777 416.831 422.411 427.274 445.737 468.649C460.562 494.945 464.124 520.792 475.854 547.125C477.541 550.912 489.907 611.271 501 589.135" stroke="black" stroke-width="2" stroke-linecap="round" stroke-dasharray="10 10"/>
</svg>
